<?xml version="1.0" encoding="iso-8859-1"?>
<!-- Generator: Adobe Illustrator 18.0.0, SVG Export Plug-In . SVG Version: 6.00 Build 0)  -->
<!DOCTYPE svg PUBLIC "-//W3C//DTD SVG 1.1//EN" "http://www.w3.org/Graphics/SVG/1.1/DTD/svg11.dtd">
<svg version="1.1" id="Capa_1" xmlns="http://www.w3.org/2000/svg" xmlns:xlink="http://www.w3.org/1999/xlink" x="0px" y="0px"
	 viewBox="0 0 490.34 490.34" style="enable-background:new 0 0 490.34 490.34;" xml:space="preserve">
<g id="XMLID_36_">
	<path id="XMLID_41_" d="M276.527,241.581c1.328-7.314-1.92-14.34-7.641-18.338l9.39-30.788c14.1-1.388,28.36-16.112,34.514-36.255
		c3.541-11.672,4.003-23.56,1.261-33.496c-2.864-10.39-8.859-17.456-16.885-19.908c-1.969-0.591-4.022-0.895-6.106-0.895
		c-14.79,0-30.2,15.356-36.659,36.517c-3.542,11.672-4.004,23.569-1.25,33.502c1.889,6.938,5.319,12.227,9.707,15.816l-9.421,30.907
		l-37.975-6.905l-40.121-60.359c-3.461-5.213-9.146-7.755-14.966-7.873l-75.244-0.195c-6.856,0.146-13.364,3.959-16.41,10.625
		L7.261,288.561c-4.229,9.268-0.128,20.197,9.116,24.425c2.481,1.131,5.076,1.667,7.642,1.667c7.002,0,13.687-4.005,16.795-10.772
		l19.127-41.929L43.457,339.56c-0.608,2.839,0.11,5.794,1.938,8.045c1.829,2.252,4.552,3.565,7.465,3.565h17.592v117.048
		c0,12.22,9.902,22.122,22.114,22.122s22.113-9.902,22.113-22.122V351.17h16.137v117.048c0,12.22,9.902,22.122,22.125,22.122
		c12.212,0,22.114-9.902,22.114-22.122V351.17h17.562c2.9,0,5.637-1.313,7.464-3.565c1.828-2.251,2.528-5.206,1.92-8.045
		l-16.038-75.554h-26.582v43.966c0,2.859-2.308,5.177-5.16,5.177H91.286c-2.852,0-5.179-2.317-5.179-5.177v-43.966h-26.58
		l5.045-23.786h21.536v-46.068c0-10.047,8.16-18.202,18.209-18.202h36.865c10.06,0,18.201,8.155,18.201,18.202v46.068h21.536
		l-4.344-20.423l12.547,18.873c2.79,4.166,7.137,7.027,12.054,7.927l41.436,7.547l-0.804,2.625
		c-1.297,4.265,1.091,8.772,5.35,10.071c0.805,0.239,1.573,0.354,2.376,0.354c3.443,0,6.649-2.237,7.691-5.714l1.475-4.822
		C267.314,256.524,274.911,250.378,276.527,241.581z M273.084,144.104c5.704-18.74,13.552-30.557,18.999-34.385l-21.753,71.373
		c-0.519,0.039-0.994,0.207-1.475,0.33C267.252,174.555,267.892,161.102,273.084,144.104z M275.777,182.758l21.853-71.712
		c0.816,2.044,1.444,5.146,1.492,9.591c0.079,8.373-1.682,18.989-5.015,29.875c-5.192,17.098-12.211,28.49-17.336,33.319
		C276.448,183.457,276.161,183.074,275.777,182.758z M308.573,124.212c2.45,8.91,2.017,19.684-1.231,30.341
		c-4.68,15.404-14.325,27.204-24.435,31.044c6.678-7.621,12.785-20.773,16.648-33.424c3.46-11.435,5.331-22.659,5.239-31.599
		c-0.018-2.219-0.304-3.845-0.53-5.569C306.056,117.536,307.567,120.55,308.573,124.212z M258.6,170.414
		c-2.438-8.908-2.006-19.686,1.249-30.339c4.68-15.4,14.326-27.21,24.437-31.055c-6.685,7.626-12.785,20.783-16.648,33.433
		c-4.041,13.29-6.075,27.199-4.839,36.949C261.067,176.904,259.592,173.963,258.6,170.414z"/>
	<path id="XMLID_38_" d="M77.119,76.413c0,2.686,1.396,4.946,3.412,6.412c-0.573,2.817-0.878,5.736-0.878,8.717
		c0,23.801,19.293,43.084,43.101,43.084s43.101-19.283,43.101-43.084c0-2.98-0.317-5.899-0.896-8.711
		c2.016-1.466,3.43-3.725,3.43-6.418V60.537c6.758-5.555,10.816-13.878,10.816-22.681c0.013-17.602-15.819-31.81-33.551-29.149
		c-12.517-11.632-33.381-11.589-45.782,0.01c-17.817-2.788-33.601,11.529-33.601,29.14c0,8.826,4.071,17.15,10.848,22.702V76.413z
		 M95.741,24.532c1.28,0,2.626,0.247,4.229,0.793c3.235,1.072,6.825,0.033,8.939-2.66c6.825-8.717,20.815-8.747,27.72,0
		c2.102,2.675,5.674,3.718,8.91,2.645c1.572-0.536,2.919-0.777,4.228-0.777c7.343,0,13.303,5.975,13.303,13.324
		c0,4.756-2.534,9.053-6.764,11.486c-2.498,1.436-4.034,4.102-4.034,6.995v12.008H93.255V56.343c0-2.899-1.554-5.575-4.071-7.001
		c-4.247-2.428-6.775-6.721-6.775-11.486C82.408,30.506,88.386,24.532,95.741,24.532z"/>
	<path id="XMLID_37_" d="M475.679,299.122h-30.011v-56.113c0-5.018-4.051-9.071-9.055-9.071h-19.42v-65.254
		c0-5.015-4.066-9.069-9.068-9.069h-57.486c-5.004,0-9.075,4.055-9.075,9.069v65.254h-19.419c-4.997,0-9.05,4.054-9.05,9.071v56.113
		h-30.012c-5.002,0-9.073,4.052-9.073,9.061v74.48c0,5.008,4.071,9.068,9.073,9.068h72.101v66.345h-29.737
		c-8.909,0-16.137,7.228-16.137,16.135c0,8.91,7.228,16.129,16.137,16.129h107.87c8.909,0,16.137-7.219,16.137-16.129
		c0-8.907-7.228-16.135-16.137-16.135h-29.743v-66.345h72.105c4.997,0,9.067-4.061,9.067-9.068v-74.48
		C484.746,303.173,480.676,299.122,475.679,299.122z"/>
</g>
<g>
</g>
<g>
</g>
<g>
</g>
<g>
</g>
<g>
</g>
<g>
</g>
<g>
</g>
<g>
</g>
<g>
</g>
<g>
</g>
<g>
</g>
<g>
</g>
<g>
</g>
<g>
</g>
<g>
</g>
</svg>
