<?xml version="1.0" encoding="iso-8859-1"?>
<!-- Generator: Adobe Illustrator 18.0.0, SVG Export Plug-In . SVG Version: 6.00 Build 0)  -->
<!DOCTYPE svg PUBLIC "-//W3C//DTD SVG 1.1//EN" "http://www.w3.org/Graphics/SVG/1.1/DTD/svg11.dtd">
<svg version="1.1" id="Capa_1" xmlns="http://www.w3.org/2000/svg" xmlns:xlink="http://www.w3.org/1999/xlink" x="0px" y="0px"
	 viewBox="0 0 495.795 495.795" style="enable-background:new 0 0 495.795 495.795;" xml:space="preserve">
<g id="XMLID_346_">
	<path id="XMLID_350_" d="M210.65,96.699c26.689,0,48.332-21.642,48.332-48.346C258.982,21.642,237.339,0,210.65,0
		c-26.729,0-48.371,21.642-48.371,48.353C162.279,75.057,183.921,96.699,210.65,96.699z"/>
	<path id="XMLID_347_" d="M416.591,146.294c0-22.068-17.897-39.959-39.965-39.959c-22.07,0-39.967,17.891-39.967,39.959
		c0,10.758,4.295,20.478,11.206,27.657l-34.634,5.904l-43.682-64.498c-2.52-3.717-6.138-5.994-10.051-7.44
		c0.245-1.73,0.129-3.49-0.715-5.057c-1.172-2.191-3.273-3.733-5.73-4.199c-1.439-0.277-11.939-0.913-11.939-0.913
		c-2.893-0.252-5.719,1.22-7.384,3.705c-1.149,1.739-2.52,3.201-4.006,4.549h-38.189c-1.47-1.349-2.857-2.81-4.006-4.549
		c-1.647-2.485-4.363-3.957-7.387-3.705c0,0-10.499,0.636-11.919,0.918c-2.439,0.47-4.54,2.012-5.72,4.202
		c-0.773,1.454-0.922,3.069-0.773,4.676c-5.014,1.834-9.326,5.566-11.699,10.816L81.082,269.421
		c-4.75,10.386-0.179,22.659,10.21,27.398c2.797,1.269,5.702,1.874,8.577,1.874c7.852,0,15.365-4.491,18.826-12.1l25.072-54.926
		v58.352c0,4.549,3.661,8.223,8.202,8.254V470.98c0,13.71,11.114,24.815,24.815,24.815c13.699,0,24.814-11.105,24.814-24.815
		V323.106h18.094V470.98c0,13.71,11.114,24.815,24.816,24.815c13.7,0,24.815-11.105,24.815-24.815V298.272
		c4.539-0.031,8.207-3.705,8.207-8.254v-89.111l8.915,13.166c3.896,5.741,10.34,9.087,17.123,9.087c1.148,0,2.312-0.098,3.477-0.292
		l67.201-11.452c11.263-1.923,18.839-12.601,16.917-23.863c-0.223-1.348-0.953-2.439-1.422-3.674
		C405.335,178.427,416.591,163.749,416.591,146.294z M184.525,141.198c0-7.133-0.693-14.152-2.053-20.849
		c15.668,12.973,40.71,12.979,56.347-0.024c-1.353,6.696-2.052,13.731-2.052,20.873c0,26.161,9.375,49.627,24.219,61.46v79.09
		h-100.68v-79.09C175.156,190.825,184.525,167.359,184.525,141.198z"/>
</g>
<g>
</g>
<g>
</g>
<g>
</g>
<g>
</g>
<g>
</g>
<g>
</g>
<g>
</g>
<g>
</g>
<g>
</g>
<g>
</g>
<g>
</g>
<g>
</g>
<g>
</g>
<g>
</g>
<g>
</g>
</svg>
