<?xml version="1.0" encoding="iso-8859-1"?>
<!-- Generator: Adobe Illustrator 18.0.0, SVG Export Plug-In . SVG Version: 6.00 Build 0)  -->
<!DOCTYPE svg PUBLIC "-//W3C//DTD SVG 1.1//EN" "http://www.w3.org/Graphics/SVG/1.1/DTD/svg11.dtd">
<svg version="1.1" id="Capa_1" xmlns="http://www.w3.org/2000/svg" xmlns:xlink="http://www.w3.org/1999/xlink" x="0px" y="0px"
	 viewBox="0 0 490.587 490.587" style="enable-background:new 0 0 490.587 490.587;" xml:space="preserve">
<g id="XMLID_314_">
	<path id="XMLID_330_" d="M126.297,121.622c24.687,0,44.695-19.996,44.695-44.687c0-1.529-0.286-2.977-0.45-4.456
		c-2.877,1.393-6.041,2.136-9.356,2.136h-69.79c-3.297,0-6.479-0.743-9.356-2.136c-0.146,1.479-0.45,2.926-0.45,4.456
		C81.589,101.626,101.598,121.622,126.297,121.622z"/>
	<path id="XMLID_329_" d="M91.396,58.48h69.79c1.649,0,3.182-0.751,4.21-2.038c1.004-1.295,1.376-2.974,0.992-4.568l-10.64-43.837
		C154.609,3.319,150.388,0,145.545,0h-38.508c-4.831,0-9.053,3.319-10.203,8.037L86.213,51.874c-0.384,1.594-0.03,3.273,0.991,4.568
		C88.209,57.729,89.765,58.48,91.396,58.48z"/>
	<path id="XMLID_319_" d="M456.224,403.2H262.939V243.258c5.651-2.263,10.177-7.072,11.613-13.445
		c2.305-10.302-4.155-20.531-14.46-22.853l-43.254-9.724l-35.637-57.699c-3.985-6.449-11.132-8.8-18.239-8.8
		c-8.787,0-68.195,0.06-73.519,0.033c-7.906-0.04-15.708,3.27-19.193,10.877L6.519,281.305c-4.386,9.606-0.164,20.939,9.454,25.332
		c9.581,4.374,20.94,0.143,25.32-9.454l30.813-67.49l-0.067,237.956c0,12.669,10.288,22.939,22.942,22.939
		c12.665,0,22.935-10.27,22.935-22.939V330.942h16.736v136.706c0,12.669,10.287,22.939,22.953,22.939
		c12.654,0,22.94-10.27,22.94-22.939l-0.066-256.544l8.079,13.07c2.688,4.373,7.039,7.47,12.063,8.596l30.071,6.777V419.33
		c0,8.909,7.215,16.14,16.127,16.14h21.274c-5.871,5.84-9.502,13.919-9.502,22.853c0,17.819,14.461,32.265,32.267,32.265
		c17.818,0,32.261-14.445,32.261-32.265c0-8.934-3.614-17.013-9.496-22.853h67.405c-5.871,5.84-9.502,13.919-9.502,22.853
		c0,17.819,14.448,32.265,32.267,32.265c17.818,0,32.267-14.445,32.267-32.265c0-8.934-3.632-17.013-9.502-22.853h29.669
		c8.912,0,16.146-7.23,16.146-16.14C472.37,410.421,465.136,403.2,456.224,403.2z M102.079,282.306
		c-5.451,0-9.885-4.432-9.885-9.895c0-5.463,4.435-9.886,9.885-9.886c5.475,0,9.904,4.423,9.904,9.886
		C111.982,277.874,107.554,282.306,102.079,282.306z M102.079,233.898c-5.451,0-9.885-4.422-9.885-9.892
		c0-5.457,4.435-9.886,9.885-9.886c5.475,0,9.904,4.429,9.904,9.886C111.982,229.476,107.554,233.898,102.079,233.898z
		 M102.079,185.502c-5.451,0-9.885-4.433-9.885-9.892c0-5.463,4.435-9.886,9.885-9.886c5.475,0,9.904,4.423,9.904,9.886
		C111.982,181.069,107.554,185.502,102.079,185.502z M150.485,282.306c-5.457,0-9.886-4.432-9.886-9.895
		c0-5.463,4.429-9.886,9.886-9.886c5.469,0,9.886,4.423,9.886,9.886C160.371,277.874,155.954,282.306,150.485,282.306z
		 M150.485,233.898c-5.457,0-9.886-4.422-9.886-9.892c0-5.457,4.429-9.886,9.886-9.886c5.469,0,9.886,4.429,9.886,9.886
		C160.371,229.476,155.954,233.898,150.485,233.898z M150.485,185.502c-5.457,0-9.886-4.433-9.886-9.892
		c0-5.463,4.429-9.886,9.886-9.886c5.469,0,9.886,4.423,9.886,9.886C160.371,181.069,155.954,185.502,150.485,185.502z
		 M290.856,466.383c-4.448,0-8.061-3.613-8.061-8.061c0-4.456,3.613-8.069,8.061-8.069c4.459,0,8.079,3.613,8.079,8.069
		C298.935,462.77,295.315,466.383,290.856,466.383z M403.79,466.383c-4.447,0-8.061-3.613-8.061-8.061
		c0-4.456,3.613-8.069,8.061-8.069c4.466,0,8.079,3.613,8.079,8.069C411.869,462.77,408.256,466.383,403.79,466.383z"/>
	<path id="XMLID_318_" d="M471.183,317.154H301.794c-8.061,0-14.601,6.534-14.601,14.595v32.65c0,8.055,6.54,14.597,14.601,14.597
		h169.389c8.08,0,14.619-6.542,14.619-14.597v-32.65C485.802,323.689,479.262,317.154,471.183,317.154z"/>
	<path id="XMLID_315_" d="M471.183,176.817h-41.015V143.72c0-6.679-5.408-12.103-12.093-12.103h-63.153
		c-6.686,0-12.094,5.424-12.094,12.103v33.098h-41.033c-8.061,0-14.601,6.534-14.601,14.603v84.43
		c0,8.061,6.54,14.598,14.601,14.598h174.092c5.469,0,9.916-4.432,9.916-9.919V191.42
		C485.802,183.352,479.262,176.817,471.183,176.817z M405.98,176.817h-38.964V155.82h38.964V176.817z"/>
</g>
<g>
</g>
<g>
</g>
<g>
</g>
<g>
</g>
<g>
</g>
<g>
</g>
<g>
</g>
<g>
</g>
<g>
</g>
<g>
</g>
<g>
</g>
<g>
</g>
<g>
</g>
<g>
</g>
<g>
</g>
</svg>
