<?xml version="1.0" encoding="iso-8859-1"?>
<!-- Generator: Adobe Illustrator 18.0.0, SVG Export Plug-In . SVG Version: 6.00 Build 0)  -->
<!DOCTYPE svg PUBLIC "-//W3C//DTD SVG 1.1//EN" "http://www.w3.org/Graphics/SVG/1.1/DTD/svg11.dtd">
<svg version="1.1" id="Capa_1" xmlns="http://www.w3.org/2000/svg" xmlns:xlink="http://www.w3.org/1999/xlink" x="0px" y="0px"
	 viewBox="0 0 492.223 492.223" style="enable-background:new 0 0 492.223 492.223;" xml:space="preserve">
<path id="XMLID_238_" d="M374.741,267.477l-68.456-149.972c-3.544-7.776-11.339-12.244-19.391-11.964
	c-0.018,0.161-0.049,0.338-0.067,0.497c-2.897,23.962-11.56,65.36-23.075,89.384c-0.817-17.448-3.001-42.645-8.661-56.046
	l6.093-6.094c0.818-0.82,1.27-1.934,1.27-3.09c0-1.152-0.451-2.269-1.27-3.086l-11.979-11.974c-1.702-1.709-4.459-1.709-6.179,0
	l-11.979,11.974c-1.702,1.708-1.702,4.468,0,6.176l6.094,6.094c-5.643,13.4-7.826,38.612-8.661,56.064
	c-11.516-24.026-20.172-65.432-23.076-89.394c-0.018-0.161-0.048-0.345-0.067-0.506c-2.067-0.07-4.056,0.418-6.014,0.948
	l-9.912-17.435c-2.727-4.813-3.397-10.61-1.83-15.901c1.574-5.295,5.295-9.793,10.205-12.334l1.952-1.018
	c1.543,6.045,4.191,11.61,7.765,16.503c8.759,11.885,22.708,19.695,38.623,19.695c15.878,0,29.864-7.811,38.586-19.695
	c5.843-7.955,9.399-17.674,9.399-28.299C294.11,21.482,272.621,0,246.124,0c-26.082,0-47.187,20.799-47.894,46.711l-6.125,3.168
	c-7.863,4.074-13.828,11.284-16.329,19.769c-2.538,8.485-1.458,17.772,2.922,25.494l10.309,18.131
	c-1.104,1.348-2.324,2.583-3.063,4.232L117.49,267.477c-4.715,10.314-0.158,22.495,10.138,27.204
	c2.775,1.257,5.679,1.861,8.516,1.861c7.795,0,15.254-4.46,18.689-12.014l33.103-72.487l-0.061,255.546
	c0,13.608,11.016,24.636,24.63,24.636c13.603,0,24.637-11.027,24.637-24.636V320.775h17.963v146.812
	c0,13.608,11.022,24.636,24.636,24.636c13.602,0,24.636-11.027,24.636-24.636l-0.061-255.517l33.072,72.458
	c3.447,7.554,10.906,12.014,18.702,12.014c2.836,0,5.739-0.604,8.497-1.861C374.9,289.972,379.438,277.791,374.741,267.477z
	 M209.392,43.801c0-2.037,1.653-3.682,3.69-3.682h23.484c2.403-2.51,5.74-4.104,9.491-4.104c3.721,0,7.057,1.595,9.466,4.104h23.515
	c2.037,0,3.684,1.645,3.684,3.682v10.498c0,3.641-2.946,6.59-6.605,6.59h-14.95c-3.654,0-6.606-2.949-6.606-6.59v-1.227
	c-1.958-0.306-3.562-1.83-3.562-3.883c0-2.736-2.214-4.965-4.941-4.965c-2.739,0-4.971,2.228-4.971,4.965
	c0,2.044-1.567,3.559-3.525,3.873v1.236c0,3.641-2.953,6.59-6.612,6.59h-14.945c-3.659,0-6.612-2.949-6.612-6.59V43.801z"/>
<g>
</g>
<g>
</g>
<g>
</g>
<g>
</g>
<g>
</g>
<g>
</g>
<g>
</g>
<g>
</g>
<g>
</g>
<g>
</g>
<g>
</g>
<g>
</g>
<g>
</g>
<g>
</g>
<g>
</g>
</svg>
