<?xml version="1.0" encoding="iso-8859-1"?>
<!-- Generator: Adobe Illustrator 18.0.0, SVG Export Plug-In . SVG Version: 6.00 Build 0)  -->
<!DOCTYPE svg PUBLIC "-//W3C//DTD SVG 1.1//EN" "http://www.w3.org/Graphics/SVG/1.1/DTD/svg11.dtd">
<svg version="1.1" id="Capa_1" xmlns="http://www.w3.org/2000/svg" xmlns:xlink="http://www.w3.org/1999/xlink" x="0px" y="0px"
	 viewBox="0 0 493.942 493.942" style="enable-background:new 0 0 493.942 493.942;" xml:space="preserve">
<g id="XMLID_75_">
	<path id="XMLID_90_" d="M338.761,147.551c17.262,0,34.513,4.182,49.881,12.09l26.406,13.599l-14.02-81.102
		c-0.768-4.327-4.511-7.498-8.915-7.498h-28.634V71.047h13.988c7.079,0,12.79-5.717,12.79-12.79c0-7.068-5.711-12.801-12.79-12.801
		h-13.988v-1.351c0-4.987-4.054-9.037-9.046-9.037h-3.774l0.032-17.897c0-7.078-5.729-12.81-12.789-12.829c-0.02,0-0.02,0-0.02,0
		c-7.059,0-12.782,5.72-12.802,12.78l-0.031,17.945h-3.711c-5.012,0-9.057,4.05-9.057,9.037v1.351h-13.978
		c-7.06,0-12.801,5.732-12.801,12.801c0,7.073,5.741,12.79,12.801,12.79h13.978V84.64h-28.605c-4.411,0-8.166,3.171-8.933,7.498
		l-14.138,81.835l28.862-14.637C304.644,151.627,321.716,147.551,338.761,147.551z"/>
	<path id="XMLID_89_" d="M78.722,102.975c0.409,23.388,19.552,41.591,42.266,41.591c22.471,0,41.862-17.937,42.269-41.6
		c-10.79,7.517-25.936,12.461-42.269,12.461C104.653,115.427,89.506,110.489,78.722,102.975z"/>
	<path id="XMLID_85_" d="M77.385,68.117v10.014c0.021,9.908,19.528,22.818,43.602,22.818c24.08,0,43.569-12.91,43.586-22.818V68.127
		c10.674-3.58,18.445-11.233,18.445-21.801C183.019,25.34,155.349,0,120.988,0C86.63,0,58.956,25.34,58.956,46.326
		C58.956,54.966,64.338,63.743,77.385,68.117z M120.988,77.098c-5.644,0-10.413-7.864-10.413-17.18
		c0-9.313,4.77-17.181,10.413-17.181c5.648,0,10.412,7.867,10.412,17.181C131.4,69.233,126.635,77.098,120.988,77.098z
		 M120.988,14.481c27.736,0,47.553,20.024,47.553,31.846c0,2.864-1.868,4.996-4.911,6.654c-2.476-2.407-12.463-4.408-26.229-5.303
		c-3.137-7.933-9.207-13.269-16.413-13.269c-7.209,0-13.272,5.336-16.417,13.269c-13.758,0.895-23.769,2.896-26.226,5.293
		c-3.039-1.648-4.912-3.78-4.912-6.645C73.433,34.505,93.25,14.481,120.988,14.481z"/>
	<path id="XMLID_84_" d="M483.12,235.274l-105.472-54.313c-8.835-4.542-18.271-7.396-27.868-8.65l-8.415,149.822
		c-0.129,2.205-2.016,3.913-4.225,3.783c-2.035-0.114-3.645-1.758-3.779-3.783l-8.378-149.34c-8.477,1.39-16.822,3.945-24.663,7.93
		l-77.587,39.341l30.603,67.06c8.916,19.529,0.278,42.666-19.249,51.572c-2.548,1.163-5.283,1.732-7.987,2.292l27.658,69.169
		c2.115,5.277,7.225,8.736,12.905,8.736h142.415c5.691,0,10.784-3.459,12.9-8.736l65.404-163.494
		C489.089,242.334,487.266,237.406,483.12,235.274z"/>
	<path id="XMLID_76_" d="M234.396,295.77l-60.355-132.235c-4.211-9.212-14.783-10.636-24.701-10.804
		c-2.598-2.379-11.488-8.004-13.078-9.061c-1.446-0.982-3.385-0.934-4.781,0.115l-10.493,7.752l-10.507-7.752
		c-1.404-1.043-3.305-1.114-4.788-0.115c-1.638,1.088-10.394,6.627-13.059,9.05c-10.222,0.125-20.466,1.529-24.715,10.814
		L7.559,295.77c-4.146,9.095-0.144,19.832,8.952,23.98c9.188,4.198,19.861,0.05,23.981-8.949l29.185-63.944v68.989
		c0,0.09-0.051,0.162-0.051,0.245v156.132c0,11.997,9.728,21.72,21.718,21.72c11.99,0,21.722-9.723,21.722-21.72V342.77h15.847
		v129.453c0,11.997,9.726,21.72,21.717,21.72c11.99,0,21.717-9.723,21.717-21.72V316.091c0-0.083-0.044-0.155-0.044-0.245v-68.949
		l29.166,63.904c4.12,8.999,14.787,13.147,23.981,8.949C234.545,315.602,238.547,304.864,234.396,295.77z M134.084,152.222
		l7.678,5.107l-5.352,17.677l-9.955-17.157L134.084,152.222z M107.875,152.222l7.63,5.627l-9.955,17.157l-5.353-17.677
		L107.875,152.222z M109.225,225.66c-9.695-14.352-21.506-54.648-17.863-70.324c-0.129,1.968,8.409,29.358,8.979,31.252
		c1.027,3.465,5.748,4.053,7.585,0.888l7.159-12.315l2.017,2.008C110.61,185.725,109.436,215.297,109.225,225.66z M120.973,287.791
		c-3.303,0-5.989-2.684-5.989-5.989c0-3.301,2.687-5.986,5.989-5.986c3.298,0,5.984,2.686,5.984,5.986
		C126.957,285.107,124.271,287.791,120.973,287.791z M120.973,254.47c-3.303,0-5.989-2.682-5.989-5.985
		c0-3.305,2.848-5.986,5.989-5.986c3.206,0,5.984,2.741,5.984,5.986C126.957,251.788,124.271,254.47,120.973,254.47z
		 M132.737,225.635c-0.211-10.373-1.387-39.916-7.896-48.467l2.035-2.023l7.157,12.331c1.828,3.155,6.543,2.587,7.581-0.888
		c0.605-1.992,9.044-29.12,8.983-31.195C154.175,170.598,142.641,210.975,132.737,225.635z"/>
</g>
<g>
</g>
<g>
</g>
<g>
</g>
<g>
</g>
<g>
</g>
<g>
</g>
<g>
</g>
<g>
</g>
<g>
</g>
<g>
</g>
<g>
</g>
<g>
</g>
<g>
</g>
<g>
</g>
<g>
</g>
</svg>
