<?xml version="1.0" encoding="iso-8859-1"?>
<!-- Generator: Adobe Illustrator 18.0.0, SVG Export Plug-In . SVG Version: 6.00 Build 0)  -->
<!DOCTYPE svg PUBLIC "-//W3C//DTD SVG 1.1//EN" "http://www.w3.org/Graphics/SVG/1.1/DTD/svg11.dtd">
<svg version="1.1" id="Capa_1" xmlns="http://www.w3.org/2000/svg" xmlns:xlink="http://www.w3.org/1999/xlink" x="0px" y="0px"
	 viewBox="0 0 492.588 492.588" style="enable-background:new 0 0 492.588 492.588;" xml:space="preserve">
<g id="XMLID_359_">
	<path id="XMLID_364_" d="M370.89,274.801l-4.659-10.198c3.86-1.969,5.589-6.612,3.763-10.597l-58.005-127.847
		c-4.628-10.101-14.68-15.938-27.55-16.025c-1.151-0.024-10.918-0.487-10.936-0.487c-2.26-0.259-4.391,0.704-5.986,2.241
		c-1.637,1.537-2.532,3.674-2.532,5.899h-38.102c0-2.234-0.914-4.372-2.533-5.909c-1.644-1.552-4.099-2.383-6.016-2.231
		c-0.018,0-8.999,0.463-10.12,0.487c-12.742,0.088-23.068,6.076-27.599,16.001l-58.713,127.813c-0.925,1.97-1.003,4.22-0.235,6.253
		c0.736,2.024,2.289,3.674,4.242,4.569l0.305,0.137l-4.5,9.894c-4.565,9.991-0.156,21.788,9.828,26.345
		c2.674,1.224,5.48,1.799,8.25,1.799c7.538,0,14.759-4.314,18.089-11.623l4.548-9.957c4,1.625,8.598-0.119,10.437-4.059
		l8.919-19.218v68.447c0,4.493,3.617,8.11,8.086,8.143v134.048c0,13.185,10.691,23.861,23.867,23.861
		c13.164,0,23.855-10.676,23.855-23.861V334.693h17.4v134.034c0,13.185,10.698,23.861,23.873,23.861
		c13.158,0,23.856-10.676,23.856-23.861V334.679c4.479-0.034,8.096-3.65,8.096-8.143V259.12l8.134,18.098
		c0.884,1.979,2.534,3.522,4.562,4.274c2.052,0.77,4.292,0.697,6.265-0.198l0.286-0.13l4.628,10.159
		c3.33,7.309,10.551,11.623,18.108,11.623c2.752,0,5.552-0.576,8.225-1.799C371.048,296.589,375.419,284.792,370.89,274.801z
		 M198.097,318.388v-97.276c0-3.827-2.655-7.133-6.406-7.964c-3.775-0.794-7.538,1.081-9.14,4.539l-21.054,45.403l-21.358-9.757
		l55.315-120.401c2.545-5.589,9.157-6.47,12.89-6.493c0.305,0,1.632-0.064,3.282-0.144c3.812,15.401,17.735,26.842,34.31,26.842
		c5.156,0,9.99-1.212,14.41-3.197v168.448H198.097z M310.102,217.781c-1.572-3.498-5.335-5.434-9.157-4.633
		c-3.745,0.807-6.436,4.131-6.436,7.973v97.267h-17.852V135.044c1.534-2.746,2.82-5.635,3.586-8.764
		c2.003,0.087,3.684,0.158,4.037,0.158c3.713,0.023,10.326,0.904,12.87,6.483l54.639,120.401l-21.32,9.718L310.102,217.781z"/>
	<path id="XMLID_361_" d="M246.149,51.713c14.282,0,25.839-11.583,25.839-25.855C271.988,11.584,260.431,0,246.149,0
		c-14.296,0-25.89,11.584-25.89,25.858C220.259,40.13,231.853,51.713,246.149,51.713z M246.149,18.731
		c3.921,0,7.124,3.197,7.124,7.127c0,3.93-3.203,7.124-7.124,7.124c-3.94,0-7.154-3.194-7.154-7.124
		C238.994,21.928,242.208,18.731,246.149,18.731z"/>
	<path id="XMLID_360_" d="M287.238,40.973c-6.147,16.725-22.204,28.664-41.073,28.664c-18.869,0-34.954-11.918-41.131-28.62
		c-3.369,6.398-5.412,13.607-5.412,21.341c0,25.672,20.828,46.487,46.492,46.487c25.67,0,46.512-20.814,46.512-46.487
		C292.626,54.61,290.622,47.378,287.238,40.973z"/>
</g>
<g>
</g>
<g>
</g>
<g>
</g>
<g>
</g>
<g>
</g>
<g>
</g>
<g>
</g>
<g>
</g>
<g>
</g>
<g>
</g>
<g>
</g>
<g>
</g>
<g>
</g>
<g>
</g>
<g>
</g>
</svg>
