<?xml version="1.0" encoding="iso-8859-1"?>
<!-- Generator: Adobe Illustrator 18.0.0, SVG Export Plug-In . SVG Version: 6.00 Build 0)  -->
<!DOCTYPE svg PUBLIC "-//W3C//DTD SVG 1.1//EN" "http://www.w3.org/Graphics/SVG/1.1/DTD/svg11.dtd">
<svg version="1.1" id="Capa_1" xmlns="http://www.w3.org/2000/svg" xmlns:xlink="http://www.w3.org/1999/xlink" x="0px" y="0px"
	 viewBox="0 0 493.982 493.982" style="enable-background:new 0 0 493.982 493.982;" xml:space="preserve">
<g id="XMLID_151_">
	<path id="XMLID_157_" d="M267.094,334.148c0-15.354-12.45-27.793-27.796-27.793h-49.246v-55.713
		c-2.42-1.999-4.645-4.28-6.419-7.023l-43.578-67.77l56.448,54.436c4.432,4.26,10.22,6.486,16.084,6.486
		c3.709,0,7.439-0.888,10.859-2.705l86.862-46.094l6.462,5.347c1.74,1.432,3.841,2.127,5.919,2.127c2.657,0,5.3-1.139,7.128-3.358
		c3.277-3.934,2.714-9.78-1.209-13.045l-6.518-5.393c1.598-5.568,1.211-11.721-1.723-17.24
		c-5.896-11.129-19.633-15.382-30.831-9.746l-15.526-12.856l-5.631-4.66c-3.963-3.249-9.793-2.715-13.049,1.229
		c-3.198,3.857-2.677,9.501,1.014,12.804c0.088,0.072,0.109,0.172,0.198,0.245l15.183,12.577l-55.153,29.264l-44.343-42.773
		l17.822,10.571v-0.455c0-18.702-15.16-33.868-33.873-33.868h-31.417c-18.714,0-33.874,15.166-33.874,33.868V334.07
		c0,13.5,9.607,24.755,22.346,27.305c6.243,1.304,90.979,0.571,98.266,0.571v104.239c0,15.354,12.45,27.797,27.799,27.797
		c15.346,0,27.796-12.443,27.796-27.797V334.148z"/>
	<path id="XMLID_156_" d="M139.896,108.32c29.91,0,54.164-24.243,54.164-54.157C194.06,24.243,169.806,0,139.896,0
		c-29.937,0-54.17,24.243-54.17,54.164C85.726,84.078,109.96,108.32,139.896,108.32z"/>
	<path id="XMLID_155_" d="M455.373,129.855c-6.295-8.063-17.913-9.518-26.021-3.183L268.795,252.181
		c-8.051,6.296-9.483,17.942-3.178,26.004c3.652,4.68,9.099,7.123,14.617,7.123c3.984,0,7.996-1.287,11.405-3.937l48.821-38.165
		v237.815c0,7.159,5.804,12.962,12.962,12.962h49.738c7.158,0,12.962-5.803,12.962-12.962V184.056l36.064-28.196
		C460.248,149.563,461.67,137.918,455.373,129.855z"/>
	<path id="XMLID_152_" d="M197.604,395.425c0-10.234-8.284-18.531-18.534-18.531H71.741c0-55.668,0-110.463,0-166.011
		c0-10.234-8.285-18.531-18.532-18.531c-10.242,0-18.528,8.296-18.528,18.531c0,175.539,0,103.213,0,264.565
		c0,10.234,8.286,18.534,18.528,18.534c10.247,0,18.532-8.299,18.532-18.534v-61.493h88.802v61.493
		c0,10.234,8.287,18.534,18.527,18.534c10.25,0,18.534-8.299,18.534-18.534V395.425z"/>
</g>
<g>
</g>
<g>
</g>
<g>
</g>
<g>
</g>
<g>
</g>
<g>
</g>
<g>
</g>
<g>
</g>
<g>
</g>
<g>
</g>
<g>
</g>
<g>
</g>
<g>
</g>
<g>
</g>
<g>
</g>
</svg>
