<?xml version="1.0" encoding="iso-8859-1"?>
<!-- Generator: Adobe Illustrator 18.0.0, SVG Export Plug-In . SVG Version: 6.00 Build 0)  -->
<!DOCTYPE svg PUBLIC "-//W3C//DTD SVG 1.1//EN" "http://www.w3.org/Graphics/SVG/1.1/DTD/svg11.dtd">
<svg version="1.1" id="Capa_1" xmlns="http://www.w3.org/2000/svg" xmlns:xlink="http://www.w3.org/1999/xlink" x="0px" y="0px"
	 viewBox="0 0 495.18 495.18" style="enable-background:new 0 0 495.18 495.18;" xml:space="preserve">
<g id="XMLID_258_">
	<path id="XMLID_263_" d="M367.928,203.11l-54.967-57.658l3.189-6.491c6.13-12.485,5.403-26.981-1.957-38.777
		c-5.165-8.288-13.03-14.043-22.03-16.85c0.535-2.646,0.756-5.389,0.826-8.18c0.127-0.074,0.287-0.107,0.435-0.188
		c4.578-2.702,7.43-7.688,7.43-13.011V43.793c0-21.12-17.191-38.3-38.311-38.3h-29.925c-21.118,0-38.312,17.18-38.312,38.3v18.162
		c0,5.309,2.832,10.294,7.43,13.021c0.148,0.08,0.309,0.114,0.438,0.185c0.47,24.716,20.571,44.622,45.414,44.622
		c16.543,0,30.867-8.91,38.826-22.101c5.988,1.539,11.201,5.318,14.568,10.731c4.5,7.211,4.955,16.062,1.199,23.686l-0.83,1.692
		c-2.941-2.558-6.389-4.046-10.065-4.533c-5.65-0.751-11.521,0.674-15.959,4.896c-7.787,7.414-8.076,19.73-0.666,27.499
		l13.794,14.471c0.923,10.987,3.251,22.805,7.929,34.158l-6.02,1.44c-9.146,2.191-14.827,10.553-14.521,19.598
		c-20.145-37.531-15.972-80.616-12.942-98.515h-30.622c3.01,17.899,7.182,60.97-12.951,98.491
		c0.297-9.039-5.385-17.382-14.514-19.574l-5.989-1.434c4.722-11.393,7.055-23.241,7.977-34.247l13.707-14.387
		c7.412-7.768,7.123-20.085-0.664-27.499c-4.432-4.231-10.322-5.662-15.973-4.902c-4.223,0.566-8.354,2.231-11.521,5.566
		l-65.098,68.292c-4.807,5.035-6.537,12.252-4.578,18.927c1.976,6.678,7.36,11.784,14.126,13.408l41.386,9.907l17.561,4.207
		c1.52,0.367,3.041,0.536,4.548,0.536c2.77,0,5.375-0.779,7.819-1.878c-2.025,2.533-4.174,5.017-6.525,7.42
		c-2.523,2.582-5.792,3.854-9.129,4.023L192.4,471.843c0,12.892,10.449,23.337,23.332,23.337c12.891,0,23.342-10.445,23.342-23.337
		v-139.1H256.1v139.1c0,12.892,10.457,23.337,23.34,23.337c12.883,0,23.34-10.445,23.34-23.337l-0.048-212.176
		c-3.337-0.175-6.638-1.447-9.159-4.029c-2.352-2.413-4.5-4.896-6.543-7.429c2.463,1.108,5.066,1.887,7.854,1.887
		c1.502,0,3.023-0.169,4.548-0.536l17.561-4.207l41.381-9.907c6.764-1.624,12.156-6.73,14.133-13.408
		C374.463,215.362,372.727,208.145,367.928,203.11z M209.881,43.793c0-12.54,10.193-22.746,22.737-22.746h29.925
		c12.544,0,22.737,10.206,22.737,22.746l0.651,17.773l-10.137-5.512c-8.643-4.693-18.397-7.171-28.207-7.171
		c-9.824,0-19.58,2.487-28.209,7.171l-9.498,5.18V43.793z M247.588,107.928c-10.392,0-18.805-8.418-18.805-18.808
		c0-10.384,8.413-18.798,18.805-18.798c7.575,0,14.033,4.549,17.012,11.021h-17.61c-4.29,0-7.786,3.48-7.786,7.777
		c0,4.296,3.496,7.777,7.786,7.777h17.61C261.621,103.372,255.182,107.928,247.588,107.928z"/>
	<path id="XMLID_262_" d="M156.147,113.922c0,6.684,5.422,12.106,12.088,12.106c6.703,0,12.107-5.422,12.107-12.106
		c0-6.676-5.404-12.098-12.107-12.098C161.568,101.824,156.147,107.246,156.147,113.922z"/>
	<path id="XMLID_261_" d="M177.104,74.302c4.871,0,8.84-3.955,8.84-8.836c0-4.887-3.969-8.845-8.84-8.845
		c-4.887,0-8.851,3.958-8.851,8.845C168.253,70.347,172.217,74.302,177.104,74.302z"/>
	<path id="XMLID_260_" d="M139.779,49.937c4.111,0,7.447-3.333,7.447-7.436c0-4.112-3.336-7.447-7.447-7.447
		s-7.441,3.335-7.441,7.447C132.338,46.604,135.668,49.937,139.779,49.937z"/>
	<path id="XMLID_259_" d="M156.633,12.559c3.477,0,6.279-2.811,6.279-6.281c0-3.462-2.802-6.278-6.279-6.278
		c-3.465,0-6.284,2.816-6.284,6.278C150.349,9.749,153.168,12.559,156.633,12.559z"/>
</g>
<g>
</g>
<g>
</g>
<g>
</g>
<g>
</g>
<g>
</g>
<g>
</g>
<g>
</g>
<g>
</g>
<g>
</g>
<g>
</g>
<g>
</g>
<g>
</g>
<g>
</g>
<g>
</g>
<g>
</g>
</svg>
