<?xml version="1.0" encoding="iso-8859-1"?>
<!-- Generator: Adobe Illustrator 18.0.0, SVG Export Plug-In . SVG Version: 6.00 Build 0)  -->
<!DOCTYPE svg PUBLIC "-//W3C//DTD SVG 1.1//EN" "http://www.w3.org/Graphics/SVG/1.1/DTD/svg11.dtd">
<svg version="1.1" id="Capa_1" xmlns="http://www.w3.org/2000/svg" xmlns:xlink="http://www.w3.org/1999/xlink" x="0px" y="0px"
	 viewBox="0 0 499.353 499.353" style="enable-background:new 0 0 499.353 499.353;" xml:space="preserve">
<g id="XMLID_223_">
	<path id="XMLID_230_" d="M456.932,431.845H324.378c-43.625,0-79.111-35.487-79.111-79.11c0-17.25,3.463-34.022,10.304-49.847
		l9.773-22.597c4.776-0.447,9.46-2.375,12.861-6.289c6.146-7.08,5.899-17.17,0.377-24.316l18.667-43.184
		c5.509-1.96,10.112-6.24,11.652-12.332l13.417-52.691c0.667,0.173,1.314,0.407,1.961,0.407c3.143,0,6.126-1.83,7.457-4.887
		c1.781-4.117-0.099-8.896-4.216-10.677l-14.907-6.443c-4.117-1.775-8.881,0.129-10.662,4.221c-1.608,3.704-0.129,7.836,3.174,9.94
		l-29.199,45.87c-1.006,1.563-1.818,3.376-2.286,5.275c-1.055,4.106-0.339,8.125,1.244,11.715l-11.728,27.135l-26.9-22.889
		l-36.138-60.932c-1.781-2.973-4.216-5.346-6.902-7.429l0.161-1.491c0.228-2.292-0.506-4.569-2.041-6.279
		c-1.541-1.701-3.729-2.682-6.027-2.682h-16.239c-3.051,0-5.676,1.727-7.069,4.302h-49.197c-1.393-2.575-4.017-4.302-7.062-4.302
		H89.505c-2.299,0-4.475,0.98-6.027,2.682c-1.541,1.71-2.268,3.987-2.041,6.279l0.161,1.605c-3.42,2.607-6.386,5.817-8.264,9.925
		L20.685,257.936c-0.893,1.96-0.974,4.196-0.228,6.215c0.747,2.015,2.287,3.654,4.229,4.554l0.097,0.04l-8.56,18.747
		c-4.437,9.716-0.159,21.188,9.566,25.621c2.594,1.19,5.313,1.757,8.018,1.757c7.345,0,14.347-4.203,17.6-11.318l8.572-18.774
		c4.067,1.784,8.782,0.024,10.649-4.018l3.84-8.36L74.4,459.912c0,4.48,3.629,8.11,8.122,8.11v8.12
		c0,12.815,10.403,23.211,23.222,23.211c12.8,0,23.203-10.395,23.203-23.211v-8.12c4.491,0,8.122-3.63,8.122-8.11h0.677
		c0,4.48,3.63,8.11,8.117,8.11v8.12c0,12.815,10.402,23.211,23.209,23.211c12.818,0,23.222-10.395,23.222-23.211v-8.12
		c4.485,0,8.115-3.63,8.115-8.11l-0.062-217.24l29.131,24.816c3.261,2.813,8.105,2.485,11.057-0.592l2.964,2.569l-10.273,23.749
		c-8.166,18.9-12.32,38.924-12.32,59.52c0,57.048,46.412,103.46,103.473,103.46h132.554c6.712,0,12.171-5.454,12.171-12.172
		C469.103,437.299,463.644,431.845,456.932,431.845z M184.108,220.414v58.063h-6.027L184.108,220.414z M157.875,142.751
		l-10.144,43.503c-0.777,3.331-3.71,5.654-7.148,5.654h-6.354c-3.433,0-6.366-2.323-7.131-5.663l-10.145-43.404L157.875,142.751z
		 M111.283,189.933c2.497,10.711,11.926,18.206,22.945,18.206h6.354c11.019,0,20.454-7.495,22.943-18.199l11.993-51.375h0.784
		l-14.539,139.912h-48.71L98.514,138.564L111.283,189.933z M59.264,266.628l-20.447-9.323l45.407-99.23l12.51,120.402h-6.027v-43.21
		c0-3.818-2.662-7.115-6.385-7.926c-3.809-0.81-7.519,1.079-9.109,4.539L59.264,266.628z M128.947,329.716
		c-4.475,0-8.104,3.63-8.104,8.11v113.968H90.638V294.706h15.106h63.328h15.099v157.088h-30.203V337.826
		c0-4.48-3.63-8.11-8.104-8.11H128.947z M233.892,249.93l-26.352-22.46c-0.888-0.775-1.67-1.71-2.267-2.745l-6.059-10.193
		c-1.867-3.137-5.578-4.609-9.126-3.688c-3.253,0.895-5.362,3.769-5.7,7.059l6.396-61.586l32.182,54.269
		c0.475,0.779,1.042,1.466,1.738,2.042l23.899,20.354L233.892,249.93z"/>
	<path id="XMLID_227_" d="M84.513,89.862c4.492,0,8.123-3.631,8.123-8.11v-0.598c2.28,22.838,21.322,40.738,44.772,40.738
		s42.485-17.9,44.79-40.748v0.607c0,4.479,3.631,8.11,8.098,8.11c4.493,0,8.123-3.631,8.123-8.11c0,0-0.05-17.313-0.05-21.258
		c0-33.4-27.484-60.494-60.96-60.494c-33.482,0-60.962,27.094-60.962,60.494c0,2.517-0.05,21.258-0.05,21.258
		C76.396,86.231,80.026,89.862,84.513,89.862z M129.285,17.047v17.858c0,4.481,3.629,8.11,8.122,8.11
		c4.486,0,8.115-3.629,8.115-8.11V17.047c20.844,3.823,36.675,21.998,36.675,43.955H92.635
		C92.635,39.045,108.429,20.87,129.285,17.047z"/>
	<path id="XMLID_226_" d="M331.33,106.056c6.644,1.013,12.85-3.547,13.853-10.198c0.357-12.154,6.384-32.67,15.913-45.676
		c9.237-12.818,20.059-20.497,33.741-24.932c1.164-0.389,1.94-1.531,1.848-2.776c-0.068-1.242-1.01-2.271-2.207-2.497
		c-14.391-2.584-34.142,10.266-44.661,20.498c-14.26,13.709-25.636,36.73-28.682,51.719
		C320.113,98.836,324.686,105.051,331.33,106.056z"/>
	<path id="XMLID_225_" d="M363.56,104.678c-3.789,5.567-2.348,13.137,3.205,16.911c5.578,3.784,13.127,2.342,16.923-3.218
		c9.656-12.759,14.549-21.569,33.025-30.699c15.863-8.199,30.432-8.904,47.54-8.036l0.296,0.016
		c1.294,0.064,2.458-0.786,2.767-2.067c0.346-1.448-0.548-2.909-1.99-3.258c-18.347-4.406-34.628-6.319-53.911-0.558
		C391.822,79.264,372.928,92.575,363.56,104.678z"/>
	<path id="XMLID_224_" d="M484.06,42.613c-7.96-5.389-18.834-14.383-35.152-15.808c-13.592-1.186-27.984,1.024-39.879,8.914
		c-5.54,4.049-5.331,9.966-1.848,13.546c3.339,3.404,8.799,3.471,12.22,0.13c7.341-7.195,19.341-12.104,29.187-12.104
		c14.272,0,20.171,2.575,33.268,8.424l0.356,0.173c0.808,0.372,1.812,0.114,2.335-0.65C485.145,44.382,484.922,43.197,484.06,42.613
		z"/>
</g>
<g>
</g>
<g>
</g>
<g>
</g>
<g>
</g>
<g>
</g>
<g>
</g>
<g>
</g>
<g>
</g>
<g>
</g>
<g>
</g>
<g>
</g>
<g>
</g>
<g>
</g>
<g>
</g>
<g>
</g>
</svg>
