<?xml version="1.0" encoding="iso-8859-1"?>
<!-- Generator: Adobe Illustrator 18.0.0, SVG Export Plug-In . SVG Version: 6.00 Build 0)  -->
<!DOCTYPE svg PUBLIC "-//W3C//DTD SVG 1.1//EN" "http://www.w3.org/Graphics/SVG/1.1/DTD/svg11.dtd">
<svg version="1.1" id="Capa_1" xmlns="http://www.w3.org/2000/svg" xmlns:xlink="http://www.w3.org/1999/xlink" x="0px" y="0px"
	 viewBox="0 0 492.473 492.473" style="enable-background:new 0 0 492.473 492.473;" xml:space="preserve">
<g id="XMLID_207_">
	<path id="XMLID_210_" d="M195.456,79.475h22.579c8.726,11.377,22.324,18.835,37.767,18.835c15.461,0,29.053-7.458,37.784-18.835
		h22.56c1.899,0,3.635-1.022,4.545-2.673c0.91-1.65,0.862-3.668-0.146-5.265l-0.061-0.088c-5.855-9.365-10.194-19.792-12.767-30.548
		C302.105,17.439,280.995,0,255.801,0c-25.176,0-46.274,17.425-51.887,40.871c-2.615,10.897-6.893,21.155-12.846,30.666
		c-1.001,1.597-1.05,3.614-0.14,5.265C191.852,78.452,193.575,79.475,195.456,79.475z"/>
	<path id="XMLID_209_" d="M55.689,107.068l-3.987-0.646c-2.397-0.374-4.818,0.527-6.371,2.387c-1.56,1.852-2.009,4.393-1.208,6.684
		l7.882,22.379c0.795,2.281,2.725,3.972,5.121,4.441c2.361,0.488,4.818-0.318,6.445-2.111l2.712-3.001
		c0.364-0.406,0.479-0.959,0.285-1.469l-9.733-27.715C56.648,107.517,56.217,107.142,55.689,107.068z"/>
	<path id="XMLID_208_" d="M433.814,99.65l11.729,4.108c0.619,0.208,1.274,0.176,1.832-0.104c0.577-0.27,1.008-0.759,1.232-1.356
		c0.395-1.142-0.128-2.409-1.213-2.938l-13.259-6.483c-3.563-1.746-7.707-1.883-11.378-0.376c-3.684,1.509-6.542,4.515-7.852,8.256
		l-17.5,50.014c-2.409,0.35-4.818,1.014-7.07,2.272l-37.56,21.008l-38.774-57.314c-3.876-5.703-10.115-8.465-16.51-8.607h-83.367
		c-6.401,0.146-12.651,2.922-16.516,8.607l-38.786,57.314l-24.957-13.962c1.984-3.869,2.585-8.425,1.025-12.847l-14.284-40.588
		l-0.079,0.024c-4.66-10.618-16.753-16.019-27.857-12.102l-0.031-0.064l-30.03,10.552c-0.764,0.28-1.146,1.102-0.892,1.875
		l9.35,26.583c0.273,0.765,1.098,1.147,1.85,0.886l10.577-3.719c3.435,3.789,8.058,6.286,13.07,7.094l5.406,15.339
		c-3.398,1.771-6.492,4.181-8.501,7.773c-5.491,9.842-1.978,22.287,7.846,27.793l31.547,17.637
		c6.366,16.938,10.607,43.342-5.139,73.441c-29.004,55.432-17.166,99.381-16.638,101.231c0.51,1.796,2.136,2.977,3.92,2.977
		c0.352,0,0.734-0.049,1.104-0.151c2.166-0.606,3.428-2.865,2.821-5.034c-0.109-0.425-11.39-42.834,16.037-95.238
		c14.6-27.915,13.326-53.059,8.296-71.409l12.002,6.711c3.144,1.763,6.571,2.601,9.951,2.601c6.59,0,13.004-3.177,16.929-8.976
		l14.296-21.124l-28.064,132.109c-0.764,3.613,0.146,7.378,2.457,10.252c2.33,2.873,5.826,4.539,9.526,4.539h17.488v129.709
		c0,13.537,10.977,24.509,24.508,24.509c13.544,0,24.502-10.972,24.502-24.509V338.255h17.876v129.709
		c0,13.537,10.977,24.509,24.502,24.509c13.55,0,24.508-10.972,24.508-24.509V338.255h17.506c3.683,0,7.196-1.666,9.527-4.539
		c2.311-2.874,3.222-6.639,2.457-10.252l-28.07-132.109l14.284,21.124c3.926,5.799,10.352,8.976,16.942,8.976
		c3.386,0,6.795-0.838,9.957-2.601l53.932-30.164c9.841-5.506,13.355-17.951,7.845-27.793c-1.723-3.089-4.272-5.298-7.081-7.064
		l3.095-8.829c0.322-0.894,1.244-1.419,2.172-1.213l14.423,3.192c1.178,0.255,2.361-0.407,2.761-1.548
		c0.431-1.247-0.212-2.603-1.457-3.049l-11.741-4.1c-1.657-0.591-2.584-2.354-2.136-4.028l15.333,5.36
		c1.001,0.35,2.105-0.176,2.439-1.189c0.364-1.014-0.157-2.114-1.183-2.456l-15.345-5.377l1.274-3.638l15.351,5.376
		c1.001,0.351,2.105-0.186,2.457-1.19c0.364-0.998-0.175-2.105-1.165-2.449l-15.369-5.375l1.28-3.637l15.346,5.365
		c1.007,0.362,2.106-0.176,2.458-1.181c0.352-1.002-0.176-2.105-1.178-2.447l-15.352-5.386l1.262-3.638l15.364,5.376
		c0.989,0.343,2.105-0.176,2.458-1.188c0.352-1.005-0.194-2.105-1.183-2.458l-15.346-5.367l1.263-3.646l15.364,5.369
		c0.989,0.352,2.105-0.177,2.457-1.175c0.353-1.012-0.194-2.113-1.184-2.463l-15.345-5.361c0.316-0.743,0.892-1.341,1.608-1.693
		C432.042,99.401,432.971,99.347,433.814,99.65z"/>
</g>
<g>
</g>
<g>
</g>
<g>
</g>
<g>
</g>
<g>
</g>
<g>
</g>
<g>
</g>
<g>
</g>
<g>
</g>
<g>
</g>
<g>
</g>
<g>
</g>
<g>
</g>
<g>
</g>
<g>
</g>
</svg>
