<?xml version="1.0" encoding="iso-8859-1"?>
<!-- Generator: Adobe Illustrator 18.0.0, SVG Export Plug-In . SVG Version: 6.00 Build 0)  -->
<!DOCTYPE svg PUBLIC "-//W3C//DTD SVG 1.1//EN" "http://www.w3.org/Graphics/SVG/1.1/DTD/svg11.dtd">
<svg version="1.1" id="Capa_1" xmlns="http://www.w3.org/2000/svg" xmlns:xlink="http://www.w3.org/1999/xlink" x="0px" y="0px"
	 viewBox="0 0 489.924 489.924" style="enable-background:new 0 0 489.924 489.924;" xml:space="preserve">
<g id="XMLID_305_">
	<path id="XMLID_313_" d="M131.386,95.555c26.383,0,47.793-21.384,47.793-47.773C179.178,21.4,157.769,0,131.386,0
		c-26.4,0-47.79,21.4-47.79,47.782C83.596,74.171,104.986,95.555,131.386,95.555z"/>
	<path id="XMLID_310_" d="M280.014,344.135V224.148c4.755-2.749,8.521-7.171,9.82-12.957c2.026-8.922-2.307-17.548-9.82-21.912
		V41.322c0-6.804-5.516-12.324-12.321-12.324c-6.805,0-12.328,5.52-12.328,12.324v141.163l-27.182-6.115l-38.132-61.67
		c-4.246-6.908-11.924-9.414-19.541-9.414c-9.654,0-72.387,0.011-78.506,0.039c-8.479,0.04-16.813,3.491-20.524,11.635
		L3.361,266.233c-4.687,10.262-0.158,22.386,10.113,27.072c10.233,4.669,22.367,0.178,27.054-10.109l32.931-72.132
		c0,10.662-0.067,112.082-0.067,254.342c0,13.542,10.979,24.519,24.521,24.519s24.521-10.977,24.521-24.519v-146.12h17.894v146.12
		c0,13.542,10.973,24.519,24.515,24.519c13.548,0,24.522-10.977,24.522-24.519c0-1.147,0-2.191,0-3.314l54.193-74.018
		l-24.198,73.246c-1.428,4.309,0.915,8.956,5.23,10.374c4.302,1.453,8.94-0.905,10.368-5.224l24.515-74.191v72.999
		c0,4.54,3.662,8.214,8.221,8.214c4.522,0,8.214-3.674,8.214-8.214v-72.999l24.503,74.191c1.142,3.461,4.351,5.642,7.799,5.642
		c0.855,0,1.721-0.129,2.588-0.419c4.296-1.418,6.64-6.065,5.211-10.374l-24.197-73.246l59.069,80.677
		c1.605,2.199,4.107,3.362,6.646,3.362c1.666,0,3.369-0.513,4.845-1.59c3.657-2.679,4.443-7.821,1.765-11.48L280.014,344.135z
		 M189.364,434.272c-0.012-151.372-0.08-139.884-0.08-243.076l8.635,13.97c2.887,4.669,7.543,7.982,12.901,9.194l44.545,10.023
		v119.752L189.364,434.272z"/>
	<path id="XMLID_309_" d="M406.374,376.503c-7.995,1.645-23.397,5.303-27.829,9.74c-11.009,11.01-11.424,21.281-5.358,27.362
		c6.084,6.071,16.35,5.648,27.359-5.353c4.448-4.446,8.103-19.843,9.74-27.816c0.243-1.102-0.092-2.24-0.897-3.033
		C408.602,376.616,407.467,376.27,406.374,376.503z"/>
	<path id="XMLID_308_" d="M436.126,436.793c-6.134,1.397-17.43,12.485-23.075,18.357c-0.775,0.812-1.093,1.958-0.836,3.048
		c0.237,1.093,1.025,1.984,2.069,2.377c7.641,2.847,22.629,7.953,28.744,6.563c15.178-3.466,21.006-11.931,19.097-20.316
		C460.214,438.446,451.292,433.336,436.126,436.793z"/>
	<path id="XMLID_307_" d="M469.777,377.266c-4.992-3.797-20.749-5.329-28.886-5.885c-1.11-0.07-2.196,0.419-2.873,1.31
		c-0.672,0.892-0.867,2.069-0.482,3.122c2.715,7.686,8.44,22.449,13.433,26.244c12.406,9.405,22.641,8.426,27.841,1.581
		C483.996,396.794,482.178,386.671,469.777,377.266z"/>
	<path id="XMLID_306_" d="M473.738,327.35c5.15-3.604,11.43-18.141,14.446-25.718c0.414-1.04,0.255-2.221-0.386-3.137
		c-0.641-0.915-1.702-1.452-2.825-1.412c-8.135,0.241-23.942,1.172-29.081,4.775c-12.754,8.956-14.951,18.992-10.009,26.028
		C450.791,334.922,461.002,336.288,473.738,327.35z"/>
</g>
<g>
</g>
<g>
</g>
<g>
</g>
<g>
</g>
<g>
</g>
<g>
</g>
<g>
</g>
<g>
</g>
<g>
</g>
<g>
</g>
<g>
</g>
<g>
</g>
<g>
</g>
<g>
</g>
<g>
</g>
</svg>
