<?xml version="1.0" encoding="iso-8859-1"?>
<!-- Generator: Adobe Illustrator 18.0.0, SVG Export Plug-In . SVG Version: 6.00 Build 0)  -->
<!DOCTYPE svg PUBLIC "-//W3C//DTD SVG 1.1//EN" "http://www.w3.org/Graphics/SVG/1.1/DTD/svg11.dtd">
<svg version="1.1" id="Capa_1" xmlns="http://www.w3.org/2000/svg" xmlns:xlink="http://www.w3.org/1999/xlink" x="0px" y="0px"
	 viewBox="0 0 495.631 495.631" style="enable-background:new 0 0 495.631 495.631;" xml:space="preserve">
<g id="XMLID_55_">
	<path id="XMLID_63_" d="M275.891,106.638c0-0.233-0.032-0.437-0.032-0.67h-56.105c0,0.233-0.029,0.437-0.029,0.67
		c0,21.828,5.165,48.941,11.337,69.952c0.676-0.476,1.389-0.942,2.272-0.942h28.947c0.885,0,1.596,0.467,2.271,0.942
		C270.756,155.459,275.891,128.343,275.891,106.638z"/>
	<rect id="XMLID_62_" x="237.474" y="183.914" width="20.666" height="10.853"/>
	<path id="XMLID_58_" d="M375.051,188.244l-71.025-75.502c-3.199-3.408-7.332-5.128-11.595-5.862
		c-0.049,17.379-5.351,58.769-16.441,88.01c4.539,0.331,8.169,4.029,8.169,8.663v16.902v20.308c0,4.853-3.938,8.787-8.783,8.787
		h-11.448h-32.221H220.24c-4.846,0-8.783-3.935-8.783-8.787v-20.316v-16.893c0-4.634,3.63-8.332,8.17-8.663
		c-11.289-29.877-16.395-71.215-16.441-88c-4.246,0.734-8.379,2.454-11.578,5.853l-71.032,75.502
		c-9.267,9.827-6.73,25.784,5.105,32.282l63.537,34.876c0,10.238-0.066,84.101-0.066,215.422c0,13.704,11.109,24.807,24.807,24.807
		c13.696,0,24.808-11.103,24.808-24.807V322.999h18.086v147.825c0,13.704,11.111,24.807,24.809,24.807
		c13.696,0,24.805-11.103,24.805-24.807c0-167.092-0.067-207.911-0.067-215.413l63.551-34.885
		C381.789,214.028,384.324,198.071,375.051,188.244z M168.979,197.125l20.237-21.512v32.623L168.979,197.125z M306.396,208.245
		v-32.646l20.257,21.526L306.396,208.245z"/>
	<path id="XMLID_57_" d="M230.239,222.676c0,9.703,7.861,17.571,17.572,17.571c9.704,0,17.565-7.868,17.565-17.571
		c0-4.168-1.66-7.84-4.085-10.854c-3.212-3.998-7.947-6.719-13.48-6.719c-2.199,0-4.251,0.517-6.191,1.253
		c2.118,1.324,3.605,3.56,3.605,6.24c0,4.143-3.359,7.493-7.493,7.493c-2.683,0-4.925-1.483-6.251-3.599
		C230.754,218.429,230.239,220.48,230.239,222.676z"/>
	<path id="XMLID_56_" d="M247.793,96.667c25.937,0,48.354-21.027,48.354-48.33C296.146,21.635,274.503,0,247.793,0
		c-26.699,0-48.324,21.635-48.324,48.337C199.469,75.283,221.48,96.667,247.793,96.667z"/>
</g>
<g>
</g>
<g>
</g>
<g>
</g>
<g>
</g>
<g>
</g>
<g>
</g>
<g>
</g>
<g>
</g>
<g>
</g>
<g>
</g>
<g>
</g>
<g>
</g>
<g>
</g>
<g>
</g>
<g>
</g>
</svg>
