<?xml version="1.0" encoding="iso-8859-1"?>
<!-- Generator: Adobe Illustrator 18.0.0, SVG Export Plug-In . SVG Version: 6.00 Build 0)  -->
<!DOCTYPE svg PUBLIC "-//W3C//DTD SVG 1.1//EN" "http://www.w3.org/Graphics/SVG/1.1/DTD/svg11.dtd">
<svg version="1.1" id="Capa_1" xmlns="http://www.w3.org/2000/svg" xmlns:xlink="http://www.w3.org/1999/xlink" x="0px" y="0px"
	 viewBox="0 0 492.729 492.729" style="enable-background:new 0 0 492.729 492.729;" xml:space="preserve">
<g id="XMLID_351_">
	<path id="XMLID_358_" d="M177.647,86.933c-8.883,0-17.141-2.47-24.322-6.631c-0.03,0.683-0.207,1.308-0.207,1.991
		c0,24.49,19.847,44.337,44.346,44.337c24.5,0,44.364-19.847,44.364-44.337c0-0.683-0.176-1.317-0.208-2.006
		c-7.188,4.171-15.455,6.647-24.358,6.647H177.647z"/>
	<path id="XMLID_357_" d="M251.234,296.89c-196.979,0,85.009,0-107.531,0c0,0-0.049-1.387-0.049,173.072
		c0,12.569,10.182,22.767,22.755,22.767c12.585,0,22.763-10.198,22.763-22.767V334.309h16.596v135.653
		c0,12.569,10.184,22.767,22.748,22.767c12.585,0,22.769-10.198,22.769-22.767C251.284,265.401,251.234,312.819,251.234,296.89z"/>
	<path id="XMLID_356_" d="M141.398,33.335h112.117l6.25-8.6c1.812-2.46,2.056-5.731,0.677-8.442
		c-1.384-2.726-4.17-4.433-7.219-4.433h-111.52c-3.049,0-5.842,1.708-7.232,4.433c-1.377,2.71-1.119,5.972,0.671,8.442
		L141.398,33.335z"/>
	<path id="XMLID_355_" d="M247.938,49.392h-100.98c4.637,12.515,16.551,21.483,30.689,21.483h39.614
		C231.389,70.876,243.315,61.907,247.938,49.392z"/>
	<path id="XMLID_352_" d="M412.893,62.025l-16.157-43.248c-2.153-5.741-7.185-9.908-13.231-10.917l-45.529-7.625
		c-6.049-1.009-12.152,1.275-16.066,6.006L292.551,41.85c-3.91,4.728-4.982,11.172-2.834,16.914l16.145,43.248
		c2.146,5.732,7.182,9.902,13.225,10.912l10.871,1.82l-12.617,75.231l-28.729,10.359l-36.914-56.702
		c-4.311-6.622-11.91-8.31-19.346-8.31c-2.38,0-67.524,0-69.582,0c-7.896,0-15.616,3.228-19.066,10.789L80.475,284.68
		c-4.365,9.524-0.164,20.78,9.377,25.134c9.604,4.359,20.811,0.064,25.121-9.39l28.73-62.958v43.358h107.531V212.47l13.774,21.146
		c3.592,5.499,9.622,8.619,15.901,8.619c5.183,0,30.146-9.668,35.516-11.591c2.343,2.061,4.697,3.149,7.825,3.149
		c5.768,0,10.884-4.168,11.847-10.052l0.03-0.21l3.786-1.354c9.842-3.552,14.956-14.42,11.414-24.282
		c-1.684-4.665-5.097-8.152-9.17-10.277l11.541-68.891l10.922,1.826c6.041,1.009,12.17-1.273,16.066-6.003l29.371-35.618
		C413.953,74.202,415.045,67.757,412.893,62.025z M220.419,207.531c-8.493,0-15.39-22.96-15.39-31.447
		c0-8.506,30.767-8.506,30.767,0C235.796,184.572,228.919,207.531,220.419,207.531z"/>
</g>
<g>
</g>
<g>
</g>
<g>
</g>
<g>
</g>
<g>
</g>
<g>
</g>
<g>
</g>
<g>
</g>
<g>
</g>
<g>
</g>
<g>
</g>
<g>
</g>
<g>
</g>
<g>
</g>
<g>
</g>
</svg>
