<?xml version="1.0" encoding="iso-8859-1"?>
<!-- Generator: Adobe Illustrator 18.0.0, SVG Export Plug-In . SVG Version: 6.00 Build 0)  -->
<!DOCTYPE svg PUBLIC "-//W3C//DTD SVG 1.1//EN" "http://www.w3.org/Graphics/SVG/1.1/DTD/svg11.dtd">
<svg version="1.1" id="Capa_1" xmlns="http://www.w3.org/2000/svg" xmlns:xlink="http://www.w3.org/1999/xlink" x="0px" y="0px"
	 viewBox="0 0 496.899 496.899" style="enable-background:new 0 0 496.899 496.899;" xml:space="preserve">
<g id="XMLID_217_">
	<path id="XMLID_220_" d="M373.475,270.019l-69.102-151.396c-6.287-13.842-20.825-12.386-36.027-12.386V89.935
		c14.168-8.461,23.756-23.777,23.756-41.475c0-26.772-21.699-48.46-48.479-48.46c-26.766,0-48.449,21.688-48.449,48.46
		c0,17.697,9.588,33.014,23.738,41.475v16.302c-12.949,0-26.987-1.188-34.211,9.175l-9.568,13.787
		c14.315-5.475,4.471-1.709,43.779-16.718l0.912-0.349c14.729-5.618,30.676,1.983,36.121,16.149l27.344,71.631
		c5.654,14.735-2.025,30.748-16.137,36.148l-26.51,10.101c-6.459,10.712-18.151,17.479-30.824,17.479
		c-5.83,0-18.688-3.229-24.92-4.591c0,1.679-0.068,211.307-0.068,212.981c0,13.737,11.141,24.87,24.871,24.87
		c13.731,0,24.871-11.133,24.871-24.87v-65.307h18.133v65.307c0,13.737,11.139,24.87,24.871,24.87
		c13.731,0,24.869-11.133,24.869-24.87c0-133.004-0.066-217.285-0.066-257.974l33.404,73.176
		c4.66,10.271,16.872,15.049,27.463,10.249C373.652,292.728,378.235,280.431,373.475,270.019z M233.975,106.529V87.878h19.328
		v18.651H233.975z"/>
	<path id="XMLID_219_" d="M177.159,183.406l35.554,7.771l-2.674-6.971l-6.828,2.608c-0.924,0.354-1.878,0.517-2.82,0.517
		c-3.171,0-6.17-1.937-7.363-5.083c-1.559-4.072,0.484-8.63,4.549-10.184l6.831-2.609l-3.334-8.752
		c-1.556-4.07,0.481-8.637,4.546-10.19c4.051-1.546,8.633,0.493,10.184,4.556l3.355,8.76l6.816-2.599
		c4.046-1.562,8.626,0.487,10.185,4.566c1.553,4.073-0.486,8.63-4.551,10.185l-6.816,2.598l7.771,20.379
		c0.109,0.283,0.061,0.566,0.146,0.849c7.883,6.55,12.76,16.192,13.049,26.66l15.479-5.901c5.914-2.261,8.808-8.907,6.572-14.711
		l-27.359-71.652c-2.32-6.031-8.99-8.769-14.702-6.583l-50.356,19.228c-5.875,2.241-8.826,8.824-6.572,14.701L177.159,183.406z"/>
	<path id="XMLID_218_" d="M208.637,248.152c9.531,0,18.113-6.612,20.221-16.305c2.443-11.179-4.63-22.23-15.82-24.674l-43.201-9.447
		l-5.404-1.183l-11.09-29.07c-0.616-1.614-1.035-3.264-1.361-4.923l-26.748,38.543c-8.615,12.475-1.215,29.054,12.61,32.065
		l19.403,4.243C160.822,238.186,205.053,248.152,208.637,248.152z"/>
</g>
<g>
</g>
<g>
</g>
<g>
</g>
<g>
</g>
<g>
</g>
<g>
</g>
<g>
</g>
<g>
</g>
<g>
</g>
<g>
</g>
<g>
</g>
<g>
</g>
<g>
</g>
<g>
</g>
<g>
</g>
</svg>
