<?xml version="1.0" encoding="iso-8859-1"?>
<!-- Generator: Adobe Illustrator 18.0.0, SVG Export Plug-In . SVG Version: 6.00 Build 0)  -->
<!DOCTYPE svg PUBLIC "-//W3C//DTD SVG 1.1//EN" "http://www.w3.org/Graphics/SVG/1.1/DTD/svg11.dtd">
<svg version="1.1" id="Capa_1" xmlns="http://www.w3.org/2000/svg" xmlns:xlink="http://www.w3.org/1999/xlink" x="0px" y="0px"
	 viewBox="0 0 493.176 493.176" style="enable-background:new 0 0 493.176 493.176;" xml:space="preserve">
<g id="XMLID_338_">
	<path id="XMLID_345_" d="M138.467,96.18c26.556,0,48.101-21.522,48.101-48.085C186.567,21.526,165.023,0,138.467,0
		c-26.569,0-48.12,21.526-48.12,48.095C90.347,74.658,111.898,96.18,138.467,96.18z"/>
	<path id="XMLID_341_" d="M267.337,267.872l-29.709-65.069l0.131-0.055c4.338-1.966,6.26-7.077,4.289-11.409l-35.098-77.321
		c-4.814-10.522-15.277-16.6-28.651-16.689c-1.217-0.025-11.297-0.514-11.297-0.514c-2.404-0.015-4.66,0.757-6.366,2.383
		c-1.724,1.626-2.682,3.884-2.682,6.239c0,7.825-4.697,14.49-11.359,17.602v9.082v114.051l41.927,22.026v12.002h-99.36v-12.391
		l41.148-21.637V132.348v-9.312c-6.662-3.111-11.377-9.777-11.377-17.602c0-2.363-0.958-4.623-2.664-6.254
		c-1.725-1.634-3.962-2.552-6.403-2.368c0,0-9.295,0.483-10.433,0.514c-13.263,0.089-24.004,6.322-28.714,16.634l-35.832,77.256
		c-0.946,2.095-1.045,4.468-0.26,6.628c0.81,2.153,2.417,3.902,4.518,4.86l0.161,0.064L9.583,267.872
		c-4.715,10.327-0.179,22.54,10.172,27.255c2.763,1.268,5.667,1.86,8.529,1.86c7.799,0,15.277-4.472,18.72-12.037l24.901-54.527
		v58.406c0,4.607,3.64,8.304,8.188,8.538v171.122c0,13.634,11.05,24.688,24.665,24.688c13.64,0,24.703-11.054,24.703-24.688V321.402
		h18.01v147.087c0,13.634,11.05,24.688,24.665,24.688c13.634,0,24.69-11.054,24.69-24.688V297.457h0.303
		c4.784,0,8.634-3.866,8.634-8.628v-56.771l24.146,52.893c3.449,7.565,10.908,12.037,18.738,12.037c2.843,0,5.754-0.593,8.517-1.86
		C267.498,290.412,272.047,278.208,267.337,267.872z M84.908,204.764l-30.704-14.155l32.193-69.432
		c1.335-2.895,3.739-4.536,6.273-5.454c2.472,10.052,4.209,20.827,4.209,32.601C96.879,177.296,89.873,195.47,84.908,204.764z
		 M192.057,204.659c-7.76-14.537-12.769-34.154-12.769-56.335c0-11.913,1.792-22.818,4.288-32.95
		c3.029,0.788,6.113,2.364,7.676,5.794l31.525,69.457L192.057,204.659z"/>
	<path id="XMLID_340_" d="M307.218,277.64c-12.497,0-22.626,10.131-22.626,22.618v7.006v33.234v142.147
		c0,5.815,4.716,10.531,10.531,10.531h29.14c5.834,0,10.544-4.716,10.544-10.531V340.499h150.649V277.64H307.218z"/>
	<path id="XMLID_339_" d="M313.084,257.139H374.2c4.487,0,8.127-3.649,8.127-8.142c0-4.502-3.64-8.149-8.127-8.149h-0.191
		c-0.828-13.173-9.932-23.995-22.23-27.416v-1.381c0-4.502-3.641-8.152-8.147-8.152c-4.499,0-8.139,3.65-8.139,8.152v1.387
		c-12.286,3.415-21.39,14.237-22.23,27.41h-0.18c-4.505,0-8.145,3.646-8.145,8.149C304.939,253.49,308.578,257.139,313.084,257.139z
		"/>
</g>
<g>
</g>
<g>
</g>
<g>
</g>
<g>
</g>
<g>
</g>
<g>
</g>
<g>
</g>
<g>
</g>
<g>
</g>
<g>
</g>
<g>
</g>
<g>
</g>
<g>
</g>
<g>
</g>
<g>
</g>
</svg>
