<?xml version="1.0" encoding="iso-8859-1"?>
<!-- Generator: Adobe Illustrator 18.0.0, SVG Export Plug-In . SVG Version: 6.00 Build 0)  -->
<!DOCTYPE svg PUBLIC "-//W3C//DTD SVG 1.1//EN" "http://www.w3.org/Graphics/SVG/1.1/DTD/svg11.dtd">
<svg version="1.1" id="Capa_1" xmlns="http://www.w3.org/2000/svg" xmlns:xlink="http://www.w3.org/1999/xlink" x="0px" y="0px"
	 viewBox="0 0 490.949 490.949" style="enable-background:new 0 0 490.949 490.949;" xml:space="preserve">
<g id="XMLID_64_">
	<path id="XMLID_72_" d="M485.484,366.883l-15.372-81.368c-0.641-3.371-2.887-6.218-6.035-7.621
		c-3.112-1.404-6.755-1.181-9.69,0.585l-70.922,42.753c-4.137,2.506-6.034,7.528-4.57,12.141c1.44,4.62,5.889,7.638,10.734,7.303
		l27.691-1.935c-26.428,35.539-66.252,50.128-111.903,53.874v-232.78h22.806c3.672,2.737,8.183,4.412,13.124,4.412
		c12.211,0,22.108-9.9,22.108-22.112c0-12.216-9.897-22.11-22.108-22.11c-4.941,0-9.452,1.688-13.145,4.421h-22.785V92.474
		c12.967-8.626,21.563-23.347,21.563-40.059c0-26.518-21.575-48.099-48.084-48.099c-26.527,0-48.123,21.581-48.123,48.099
		c0,16.721,8.597,31.433,21.578,40.059v31.971h-22.799c-3.693-2.733-8.202-4.421-13.157-4.421c-0.384,0-0.737,0.098-1.142,0.121
		c1.88,4.102,16.446,35.977,18.148,39.689h18.949v60.887l20.253,44.342c3.996,8.764,4.363,18.559,0.994,27.577
		c-3.368,9.025-10.044,16.199-18.837,20.217c-0.787,0.345-1.605,0.507-2.41,0.803v78.955c-16.544-1.358-32.282-4.156-46.934-8.834
		v62.693c13.975,6.898,28.625,12.098,43.839,15.042l22.207,22.207c4.107,4.091,10.733,4.091,14.84,0l22.177-22.2
		c58.648-11.37,109.53-55.221,141.867-107.603l16.542,21.334c2.968,3.834,8.184,5.126,12.597,3.136
		C483.896,376.4,486.38,371.65,485.484,366.883z M278.896,65.133c-7.012,0-12.73-5.706-12.73-12.718
		c0-7.005,5.719-12.708,12.73-12.708c6.993,0,12.693,5.703,12.693,12.708C291.589,59.427,285.889,65.133,278.896,65.133z"/>
	<path id="XMLID_71_" d="M86.226,62.243c2.412,24.678,22.951,42.225,46.342,42.225c23.317,0,43.937-17.482,46.358-42.225
		c-15.646-4.559-27.826-7.558-46.358-7.558C114.053,54.686,101.872,57.685,86.226,62.243z"/>
	<path id="XMLID_68_" d="M248.152,298.264c10.057-4.589,14.487-16.471,9.88-26.534l-28.991-63.51l0.047-0.02
		c1.923-0.875,3.431-2.497,4.186-4.486c0.721-1.988,0.642-4.197-0.225-6.129l-34.497-75.458c-5.01-11.021-16.818-16.92-27.68-16.087
		c-2.729-0.064-11.088-0.112-39.104-0.112c-26.814,0-34.837,0.048-37.469,0.107c-10.813-0.842-22.56,4.806-27.709,16.076
		L32.105,197.6c-0.866,1.934-0.947,4.131-0.225,6.129c0.756,1.98,2.264,3.604,4.191,4.477l0.03,0.015l-28.998,63.51
		c-4.603,10.063-0.177,21.945,9.885,26.534c10.241,4.638,22.029,0.032,26.54-9.902l24.281-53.19v40.483
		c0,4.43,3.576,8.016,8.006,8.016c0,0-0.066,1.845-0.066,183.252c0,13.27,10.77,24.027,24.035,24.027
		c13.273,0,24.025-10.758,24.025-24.027V323.719h17.521v143.203c0,13.27,10.764,24.027,24.035,24.027
		c13.273,0,24.038-10.758,24.038-24.027c0-199.812-0.067-172.204-0.067-183.252c4.431,0,8.012-3.586,8.012-8.016v-40.453
		l24.258,53.16C226.116,298.296,237.912,302.901,248.152,298.264z M186.006,210.268c-2.845,1.29-4.675,4.253-4.675,7.39v49.99
		h-97.51v-50.097c0-3.137-1.83-5.983-4.668-7.274l-29.156-13.313l31.178-68.212c3.435-7.563,9.609-6.697,17.488-6.755l3.387,7.415
		h61.054l3.404-7.439c7.83,0,14.085-0.666,17.459,6.804l31.177,68.182L186.006,210.268z"/>
	<path id="XMLID_67_" d="M132.568,39.595c14.877,0,29.719,2.093,44.125,6.272c3.692-12.668,7.367-25.343,11.046-38.011
		C169.718,2.623,151.149,0,132.568,0c-18.563,0-37.127,2.623-55.146,7.856c3.673,12.668,7.348,25.343,11.039,38.011
		C102.869,41.688,117.708,39.595,132.568,39.595z"/>
	<path id="XMLID_66_" d="M127.241,184.265c0.963,2.079,3.032,3.417,5.327,3.417c2.314,0,4.399-1.338,5.346-3.417l4.955-10.801
		h-20.583L127.241,184.265z"/>
	<polygon id="XMLID_65_" points="114.938,157.442 150.221,157.442 155.738,145.433 109.414,145.433 	"/>
</g>
<g>
</g>
<g>
</g>
<g>
</g>
<g>
</g>
<g>
</g>
<g>
</g>
<g>
</g>
<g>
</g>
<g>
</g>
<g>
</g>
<g>
</g>
<g>
</g>
<g>
</g>
<g>
</g>
<g>
</g>
</svg>
