<?xml version="1.0" encoding="iso-8859-1"?>
<!-- Generator: Adobe Illustrator 18.0.0, SVG Export Plug-In . SVG Version: 6.00 Build 0)  -->
<!DOCTYPE svg PUBLIC "-//W3C//DTD SVG 1.1//EN" "http://www.w3.org/Graphics/SVG/1.1/DTD/svg11.dtd">
<svg version="1.1" id="Capa_1" xmlns="http://www.w3.org/2000/svg" xmlns:xlink="http://www.w3.org/1999/xlink" x="0px" y="0px"
	 viewBox="0 0 495.357 495.357" style="enable-background:new 0 0 495.357 495.357;" xml:space="preserve">
<g id="XMLID_368_">
	<path id="XMLID_373_" d="M247.68,96.606c26.69,0,48.332-21.616,48.332-48.298C296.012,21.619,274.37,0,247.68,0
		c-26.675,0-48.314,21.619-48.314,48.307C199.365,74.989,221.005,96.606,247.68,96.606z"/>
	<path id="XMLID_369_" d="M377.132,269.06l-4.756-10.433c4.128-2.079,5.956-7.013,4.012-11.267l-60.267-132.838
		c-4.835-10.562-15.353-16.676-28.796-16.766c-1.223-0.024-11.355-0.511-11.355-0.511c-2.324-0.169-4.656,0.745-6.385,2.393
		c-1.718,1.627-2.702,3.891-2.702,6.269h-39.159c0-2.384-0.99-4.651-2.7-6.284c-1.734-1.633-3.771-2.546-6.423-2.378
		c0,0-9.338,0.477-10.47,0.511c-13.341,0.08-24.112,6.358-28.869,16.742l-61.017,132.813c-0.965,2.089-1.063,4.482-0.256,6.632
		c0.812,2.159,2.428,3.906,4.531,4.869l0.32,0.147l-4.607,10.101c-4.742,10.374-0.166,22.638,10.225,27.368
		c2.761,1.271,5.689,1.876,8.555,1.876c7.845,0,15.33-4.497,18.813-12.091l4.639-10.159c4.238,1.731,9.159-0.105,11.098-4.31
		l8.883-19.168c0,0-0.05,0.259-0.05,200.646c0,4.779,3.863,8.652,8.669,8.671v8.667c0,13.694,11.094,24.797,24.783,24.797
		c13.698,0,24.797-11.103,24.797-24.797v-8.667c4.785,0,8.667-3.885,8.667-8.671h0.743c0,4.786,3.883,8.671,8.669,8.671v8.667
		c0,13.694,11.114,24.797,24.796,24.797c13.688,0,24.795-11.103,24.795-24.797v-8.667c4.793-0.019,8.658-3.892,8.658-8.671
		c0-219.239-0.05-179.206-0.05-199.555l8.089,17.978c0.94,2.113,2.701,3.747,4.852,4.561c2.136,0.803,4.546,0.738,6.649-0.233
		l0.291-0.129l4.724,10.368c3.477,7.594,10.962,12.091,18.809,12.091c2.861,0,5.791-0.605,8.57-1.876
		C377.298,291.697,381.856,279.444,377.132,269.06z M238.643,314.156c-4.793,0-8.674,3.881-8.674,8.661v121.744h-32.223V276.758
		h29.134l-16.012,38.966c-1.827,4.432,0.288,9.496,4.724,11.316c1.064,0.437,2.184,0.656,3.299,0.656c3.394,0,6.63-2.03,8.008-5.38
		l18.147-44.143l27.515,28.131c1.698,1.729,3.943,2.602,6.195,2.602c2.184,0,4.379-0.825,6.048-2.466
		c1.747-1.698,2.618-3.953,2.618-6.201c0-2.184-0.824-4.378-2.472-6.06l-17.016-17.421h29.681v167.803h-32.221V322.817
		c0-4.78-3.881-8.661-8.673-8.661H238.643z M314.164,209.729c-1.685-3.744-5.807-5.773-9.737-4.924
		c-3.998,0.855-6.859,4.389-6.859,8.473v35.676h-99.769v-35.682c0-4.061-2.832-7.588-6.813-8.467
		c-3.941-0.849-8.02,1.131-9.717,4.819l-21.789,47.003l-21.856-9.971l57.412-124.946c2.603-5.7,9.394-6.591,13.226-6.616
		c0.307,0,1.604-0.055,3.234-0.135c4.049,16.003,18.573,27.878,35.816,27.878c17.242,0,31.767-11.891,35.813-27.902
		c1.987,0.089,3.684,0.159,4.042,0.159c3.801,0.025,10.562,0.916,13.165,6.616l56.697,124.94l-21.79,9.937L314.164,209.729z"/>
</g>
<g>
</g>
<g>
</g>
<g>
</g>
<g>
</g>
<g>
</g>
<g>
</g>
<g>
</g>
<g>
</g>
<g>
</g>
<g>
</g>
<g>
</g>
<g>
</g>
<g>
</g>
<g>
</g>
<g>
</g>
</svg>
