<?xml version="1.0" encoding="iso-8859-1"?>
<!-- Generator: Adobe Illustrator 18.0.0, SVG Export Plug-In . SVG Version: 6.00 Build 0)  -->
<!DOCTYPE svg PUBLIC "-//W3C//DTD SVG 1.1//EN" "http://www.w3.org/Graphics/SVG/1.1/DTD/svg11.dtd">
<svg version="1.1" id="Capa_1" xmlns="http://www.w3.org/2000/svg" xmlns:xlink="http://www.w3.org/1999/xlink" x="0px" y="0px"
	 viewBox="0 0 485.352 485.352" style="enable-background:new 0 0 485.352 485.352;" xml:space="preserve">
<g id="XMLID_182_">
	<path id="XMLID_195_" d="M485.032,187.891c-0.539-1.546-1.642-2.823-3.122-3.548l-41.751-20.624
		c-3.044-1.504-6.747-0.251-8.239,2.798l-2.445,4.956c12.56,1.024,22.5,11.453,22.5,24.27v63.143l32.739-66.291
		C485.439,191.126,485.547,189.434,485.032,187.891z"/>
	<path id="XMLID_194_" d="M433.652,243.556v-47.813c0-3.404-2.757-6.16-6.16-6.16h-46.558c-3.403,0-6.165,2.756-6.165,6.16v49.506
		l8.796-4.924C399.947,231.179,419.457,233.108,433.652,243.556z"/>
	<path id="XMLID_193_" d="M115.716,151.172h32.02c12.367,16.124,31.637,26.697,53.55,26.697c21.899,0,41.17-10.573,53.556-26.697
		h32.014c2.678,0,5.135-1.45,6.43-3.79c1.288-2.34,1.228-5.201-0.192-7.469l-0.06-0.111c-8.323-13.289-14.494-28.074-18.137-43.318
		c-0.977-4.074-2.301-8.005-3.889-11.791c-22.704,6.362-46.132,9.664-69.722,9.664c-23.584,0-47.013-3.302-69.716-9.664
		c-1.576,3.771-2.9,7.688-3.876,11.734c-3.721,15.456-9.767,30.002-18.215,43.495c-1.415,2.269-1.498,5.12-0.204,7.46
		C110.581,149.722,113.037,151.172,115.716,151.172z"/>
	<path id="XMLID_190_" d="M268.233,66.51c-4.458-15.37-8.934-50.207-13.422-65.585c-17.479,5.082-35.514,7.619-53.537,7.619
		c-18.03,0-36.054-2.537-53.538-7.619c-4.476,15.378-8.952,50.215-13.392,65.585c21.864,6.349,44.394,9.529,66.941,9.529
		C223.834,76.039,246.363,72.858,268.233,66.51z M199.662,61.342l-3.937-16.427l-11.157,4.751c-3.308,1.417-7.184,0.165-9.041-2.938
		l-3.152-5.256c-0.317-0.527-0.377-1.174-0.186-1.764c0.186-0.6,0.629-1.07,1.192-1.315l2.211-0.947
		c1.103-0.464,2.343-0.359,3.338,0.271l1.336,0.842c1.121,0.719,2.54,0.826,3.751,0.308l7.705-3.277l-6.303-8.696
		c-0.348-0.489-0.456-1.104-0.282-1.679c0.156-0.575,0.569-1.048,1.103-1.285l4.05-1.716c0.456-0.198,0.959-0.213,1.432-0.049
		l17.269,6.058l10.935-4.67c2.583-1.102,9.312-1.498,10.396,1.087c1.103,2.577-3.829,7.154-6.393,8.257l-9.9,4.213l-6.549,22.61
		c-0.162,0.566-0.569,1.033-1.102,1.268l-4.021,1.701c-0.533,0.23-1.15,0.213-1.654-0.045
		C200.183,62.381,199.805,61.907,199.662,61.342z"/>
	<path id="XMLID_183_" d="M392.038,255.488l-53.25,29.785l-54.987-81.258c-5.201-7.704-13.518-11.509-22.122-12.045
		c-0.378-0.245-0.695-0.584-1.133-0.749l-26.155-9.659l-10.18-3.757c-2.049-0.764-4.41-0.439-6.208,0.885l-16.717,12.328
		l-16.718-12.328c-1.761-1.324-4.128-1.648-6.208-0.885l-36.328,13.416c-0.413,0.158-0.725,0.488-1.102,0.716
		c-9.533,0.594-18.623,5.366-23.572,14.354L3.583,413.311c-7.7,14.025-2.583,31.631,11.438,39.335
		c13.979,7.675,31.625,2.599,39.343-11.44l56.768-103.31L84.677,462.44c-2.391,11.304,6.243,21.987,17.808,21.987h197.588
		c11.546,0,20.217-10.684,17.802-21.987c-27.047-127.353-20.714-97.542-32.404-152.626l20.241,29.96
		c8.371,12.36,24.878,16.44,38.132,9.035l76.493-42.776c13.961-7.798,18.94-25.454,11.121-39.41
		C423.645,252.679,405.999,247.705,392.038,255.488z M222.982,191.474l25.238,9.32l-20.163,31.367l-18.072-31.092L222.982,191.474z
		 M179.59,191.474l13.014,9.596l-18.084,31.092l-20.168-31.367L179.59,191.474z M201.316,370.167c-4.17,0-7.562-3.388-7.562-7.566
		c0-4.167,3.392-7.552,7.562-7.552c4.176,0,7.55,3.385,7.55,7.552C208.865,366.779,205.492,370.167,201.316,370.167z
		 M201.316,321.765c-4.17,0-7.562-3.386-7.562-7.562c0-4.167,3.392-7.557,7.562-7.557c4.176,0,7.55,3.39,7.55,7.557
		C208.865,318.379,205.492,321.765,201.316,321.765z M201.316,273.364c-4.17,0-7.562-3.388-7.562-7.563
		c0-4.167,3.392-7.555,7.562-7.555c4.176,0,7.55,3.388,7.55,7.555C208.865,269.977,205.492,273.364,201.316,273.364z"/>
</g>
<g>
</g>
<g>
</g>
<g>
</g>
<g>
</g>
<g>
</g>
<g>
</g>
<g>
</g>
<g>
</g>
<g>
</g>
<g>
</g>
<g>
</g>
<g>
</g>
<g>
</g>
<g>
</g>
<g>
</g>
</svg>
