<?xml version="1.0" encoding="iso-8859-1"?>
<!-- Generator: Adobe Illustrator 18.0.0, SVG Export Plug-In . SVG Version: 6.00 Build 0)  -->
<!DOCTYPE svg PUBLIC "-//W3C//DTD SVG 1.1//EN" "http://www.w3.org/Graphics/SVG/1.1/DTD/svg11.dtd">
<svg version="1.1" id="Capa_1" xmlns="http://www.w3.org/2000/svg" xmlns:xlink="http://www.w3.org/1999/xlink" x="0px" y="0px"
	 viewBox="0 0 493.131 493.131" style="enable-background:new 0 0 493.131 493.131;" xml:space="preserve">
<g id="XMLID_110_">
	<path id="XMLID_115_" d="M439.252,400.492l-7.204-15.776c5.997-3.023,8.661-10.225,5.868-16.401l-89.744-197.739
		c-7.153-15.607-22.711-24.645-42.625-24.78c-1.218-0.025-7.998-0.334-12.58-0.554h6.895c4.696,0,8.498-3.811,8.498-8.509v-25.049
		h8.6c4.063,0,7.363-3.292,7.363-7.363c0-4.074-3.301-7.365-7.363-7.365h-3.202c2.924-7.827,4.747-16.197,4.747-25.05
		C318.504,32.187,286.266,0,246.56,0c-39.684,0-71.916,32.187-71.916,71.905c0,8.884,1.816,17.288,4.778,25.139h-6.244
		c-4.012,0-7.265,3.262-7.265,7.276c0,4.012,3.253,7.273,7.265,7.273h8.6v25.139c0,4.698,3.802,8.509,8.501,8.509h9.055
		c-4.239,0.21-10.502,0.529-11.65,0.554c-19.74,0.136-35.701,9.412-42.688,24.755L54.158,368.24
		c-1.398,3.047-1.527,6.519-0.358,9.666c1.175,3.137,3.528,5.687,6.583,7.078l0.47,0.219l-6.972,15.289
		c-7.055,15.452-0.242,33.688,15.2,40.745c4.144,1.892,8.489,2.786,12.76,2.786c11.671,0,22.825-6.68,27.992-17.993l7.022-15.387
		c6.145,2.495,13.328-0.154,16.159-6.29l13.78-29.723v105.888c0,6.963,5.643,12.614,12.617,12.614h174.337
		c6.974,0,12.618-5.651,12.618-12.614V376.262l12.561,27.961c1.384,3.057,3.919,5.446,7.071,6.624
		c3.123,1.188,6.616,1.073,9.675-0.324l0.452-0.204l7.171,15.711c5.168,11.314,16.319,17.993,27.991,17.993
		c4.273,0,8.611-0.894,12.761-2.786C439.491,434.18,446.305,415.943,439.252,400.492z M198.785,128.223v-16.629h0.52
		c4.011,0,7.262-3.261,7.262-7.273c0-4.015-3.251-7.276-7.262-7.276h-0.52V80.414h92.568v16.541h-1.199
		c-4.061,0-7.363,3.291-7.363,7.365c0,4.071,3.302,7.363,7.363,7.363h1.199v16.54H198.785z M287.361,145.242
		c-2.963,0.164-5.824,1.203-7.97,3.268c-2.505,2.38-3.919,5.681-3.919,9.127h-58.909c0-3.456-1.415-6.762-3.931-9.143
		c-2.163-2.074-4.848-3.067-8-3.252H287.361z M162.127,305.145c-5.836-1.292-11.672,1.635-14.158,7.007l-32.559,70.214
		l-33.049-15.084l85.569-186.238c3.933-8.632,14.175-9.98,19.912-10.02c0.47-0.009,2.553-0.099,5.106-0.22
		c5.898,23.813,27.467,41.515,53.085,41.515c7.949,0,15.429-1.876,22.255-4.942v260.525h-96.265V317.458
		C172.024,311.542,167.912,306.414,162.127,305.145z M345.26,312.29c-2.453-5.422-8.309-8.429-14.155-7.152
		c-5.806,1.243-9.967,6.38-9.967,12.33v150.434h-27.62V184.361c2.404-4.244,4.389-8.747,5.594-13.591
		c3.072,0.14,5.689,0.245,6.206,0.254c5.739,0.04,15.95,1.397,19.901,10.02l84.508,186.229l-32.982,15.038L345.26,312.29z"/>
	<path id="XMLID_114_" d="M241.516,257.728c6.701,0,12.146-5.427,12.146-12.135c0-6.694-5.445-12.125-12.146-12.125
		c-6.709,0-12.123,5.431-12.123,12.125C229.393,252.301,234.807,257.728,241.516,257.728z"/>
	<path id="XMLID_113_" d="M241.516,316.596c6.701,0,12.146-5.437,12.146-12.132c0-6.707-5.445-12.135-12.146-12.135
		c-6.709,0-12.123,5.428-12.123,12.135C229.393,311.159,234.807,316.596,241.516,316.596z"/>
	<path id="XMLID_112_" d="M241.516,375.448c6.701,0,12.146-5.427,12.146-12.132c0-6.707-5.445-12.136-12.146-12.136
		c-6.709,0-12.123,5.428-12.123,12.136C229.393,370.021,234.807,375.448,241.516,375.448z"/>
	<path id="XMLID_111_" d="M241.516,434.31c6.701,0,12.146-5.428,12.146-12.126c0-6.704-5.445-12.135-12.146-12.135
		c-6.709,0-12.123,5.431-12.123,12.135C229.393,428.882,234.807,434.31,241.516,434.31z"/>
</g>
<g>
</g>
<g>
</g>
<g>
</g>
<g>
</g>
<g>
</g>
<g>
</g>
<g>
</g>
<g>
</g>
<g>
</g>
<g>
</g>
<g>
</g>
<g>
</g>
<g>
</g>
<g>
</g>
<g>
</g>
</svg>
