<?xml version="1.0" encoding="iso-8859-1"?>
<!-- Generator: Adobe Illustrator 18.0.0, SVG Export Plug-In . SVG Version: 6.00 Build 0)  -->
<!DOCTYPE svg PUBLIC "-//W3C//DTD SVG 1.1//EN" "http://www.w3.org/Graphics/SVG/1.1/DTD/svg11.dtd">
<svg version="1.1" id="Capa_1" xmlns="http://www.w3.org/2000/svg" xmlns:xlink="http://www.w3.org/1999/xlink" x="0px" y="0px"
	 viewBox="0 0 494.795 494.795" style="enable-background:new 0 0 494.795 494.795;" xml:space="preserve">
<g id="XMLID_374_">
	<path id="XMLID_377_" d="M182.993,96.5c26.635,0,48.243-21.595,48.243-48.246C231.236,21.595,209.628,0,182.993,0
		c-26.665,0-48.268,21.595-48.268,48.255C134.725,74.905,156.328,96.5,182.993,96.5z"/>
	<path id="XMLID_376_" d="M430.588,173.131h-29.438c9.075-7.921,15.506-18.814,17.653-31.197c0.387-2.29-0.239-4.635-1.742-6.417
		c-1.484-1.771-3.71-2.796-6.027-2.796H320.81c-2.324,0-4.512,1.024-6.015,2.806c-1.496,1.772-2.146,4.117-1.742,6.407
		c2.146,12.383,8.56,23.275,17.66,31.197H301.27c-6.837,0-12.38,5.546-12.38,12.382c0,3.661,1.644,6.861,4.158,9.127h-14.863
		l-34.717-76.059c-3.592-7.875-11.506-11.388-19.633-11.996c-1.346-0.1-13.446-0.797-13.446-0.797
		c10.527,13.971,9.589,33.839-3.145,46.568c-1.938,1.944-5.095,1.944-7.033,0l-17.217-17.226l-17.235,17.226
		c-1.95,1.944-5.078,1.944-7.027,0c-12.723-12.729-13.692-32.598-3.146-46.568c0,0-12.1,0.695-13.446,0.797
		c-8.138,0.613-16.058,4.121-19.639,11.996L53.692,269.337c-4.739,10.366-0.165,22.61,10.191,27.344
		c2.783,1.266,5.702,1.87,8.559,1.87c7.837,0,15.329-4.482,18.781-12.076l33.262-72.851l-0.048,256.406
		c0,13.679,11.073,24.765,24.765,24.765c13.673,0,24.765-11.085,24.765-24.765V322.452h18.058V470.03
		c0,13.679,11.073,24.765,24.765,24.765c13.667,0,24.759-11.085,24.759-24.765l-0.062-256.406l4.661,10.221
		c3.354,7.354,10.687,12.07,18.781,12.07h66.606c11.398,0,20.632-9.24,20.632-20.638c0-7.496-4.207-13.759-10.172-17.38h88.594
		c6.836,0,12.386-5.546,12.386-12.383C442.974,178.678,437.425,173.131,430.588,173.131z"/>
	<polygon id="XMLID_375_" points="182.993,119.171 196.378,105.79 169.614,105.79 	"/>
</g>
<g>
</g>
<g>
</g>
<g>
</g>
<g>
</g>
<g>
</g>
<g>
</g>
<g>
</g>
<g>
</g>
<g>
</g>
<g>
</g>
<g>
</g>
<g>
</g>
<g>
</g>
<g>
</g>
<g>
</g>
</svg>
