<?xml version="1.0" encoding="iso-8859-1"?>
<!-- Generator: Adobe Illustrator 18.0.0, SVG Export Plug-In . SVG Version: 6.00 Build 0)  -->
<!DOCTYPE svg PUBLIC "-//W3C//DTD SVG 1.1//EN" "http://www.w3.org/Graphics/SVG/1.1/DTD/svg11.dtd">
<svg version="1.1" id="Capa_1" xmlns="http://www.w3.org/2000/svg" xmlns:xlink="http://www.w3.org/1999/xlink" x="0px" y="0px"
	 viewBox="0 0 495.828 495.828" style="enable-background:new 0 0 495.828 495.828;" xml:space="preserve">
<g id="XMLID_267_">
	<path id="XMLID_271_" d="M377.473,269.436l-64.656-141.65v0.52c0,15.914-12.945,28.862-28.859,28.862H211.87
		c-15.912,0-28.857-12.949-28.857-28.862v-0.52l-64.656,141.65c-4.75,10.391-0.179,22.66,10.211,27.404
		c10.568,4.789,22.746,0.03,27.404-10.228l33.345-73.059c0,8.344-0.067,93.906-0.067,257.458c0,13.707,11.115,24.816,24.816,24.816
		c13.701,0,24.816-11.109,24.816-24.816V323.124h18.096v147.888c0,13.707,11.115,24.816,24.816,24.816
		c13.701,0,24.816-11.109,24.816-24.816c0-132.966-0.067-216.642-0.067-257.388l33.314,72.988
		c4.659,10.258,16.835,15.017,27.402,10.228C377.65,292.096,382.222,279.826,377.473,269.436z"/>
	<path id="XMLID_268_" d="M211.87,140.624h72.088c6.801,0,12.311-5.517,12.311-12.319V48.355c0-5.84-1.198-11.368-3.085-16.547
		C286.397,13.287,268.787,0,247.932,0c-20.877,0-38.5,13.287-45.289,31.809c-1.887,5.179-3.084,10.707-3.084,16.547v79.949
		C199.559,135.107,205.071,140.624,211.87,140.624z M215.6,55.059c0-6.802,5.514-12.319,12.326-12.319h39.988
		c6.819,0,12.331,5.518,12.331,12.319v19.681c0,6.801-5.512,12.319-12.331,12.319h-39.988c-6.813,0-12.326-5.518-12.326-12.319
		V55.059z"/>
</g>
<g>
</g>
<g>
</g>
<g>
</g>
<g>
</g>
<g>
</g>
<g>
</g>
<g>
</g>
<g>
</g>
<g>
</g>
<g>
</g>
<g>
</g>
<g>
</g>
<g>
</g>
<g>
</g>
<g>
</g>
</svg>
